<svg width="20" height="20" viewBox="0 0 20 20" fill="none" xmlns="http://www.w3.org/2000/svg">
<path fill-rule="evenodd" clip-rule="evenodd" d="M13.6619 1.68416L13.7169 1.69916C14.6336 1.94499 15.3594 2.13916 15.9302 2.34582C16.5144 2.55666 16.9911 2.79749 17.3836 3.16499C17.9548 3.70043 18.3544 4.39325 18.5319 5.15582C18.6544 5.67916 18.6252 6.21249 18.5152 6.82332C18.4094 7.42166 18.2152 8.14749 17.9694 9.06332L17.5227 10.7292C17.2777 11.645 17.0827 12.3708 16.8769 12.9425C16.6652 13.5258 16.4244 14.0025 16.0569 14.395C15.5389 14.948 14.8731 15.3408 14.1386 15.5267C13.9233 16.0201 13.6097 16.4644 13.2169 16.8325C12.8244 17.2 12.3477 17.4408 11.7636 17.6525C11.1927 17.8592 10.4669 18.0533 9.55107 18.2992L9.49523 18.3142C8.57857 18.5592 7.85357 18.7533 7.25523 18.8608C6.6444 18.97 6.11107 18.9992 5.5869 18.8775C4.82443 18.6994 4.13189 18.2992 3.5969 17.7275C3.23023 17.3358 2.98857 16.8592 2.7769 16.275C2.57107 15.7042 2.3769 14.9783 2.13107 14.0617L1.6844 12.3967C1.4394 11.48 1.2444 10.755 1.13773 10.1567C1.02857 9.54582 0.999399 9.01249 1.12107 8.48832C1.29914 7.72585 1.69935 7.03332 2.27107 6.49832C2.66273 6.13166 3.1394 5.88999 3.72357 5.67832C4.2944 5.47249 5.02023 5.27832 5.93607 5.03249L5.9644 5.02416L6.59023 4.85749C6.9169 3.69166 7.20357 2.86749 7.76357 2.26999C8.29867 1.69858 8.99119 1.29867 9.75357 1.12082C10.2777 0.999155 10.8102 1.02832 11.4219 1.13749C12.0194 1.24416 12.7452 1.43916 13.6619 1.68416ZM6.21273 6.25249C5.3019 6.49665 4.6494 6.67332 4.14773 6.85416C3.6394 7.03749 3.3419 7.20749 3.12523 7.41082C2.73411 7.77692 2.46034 8.25079 2.33857 8.77249C2.2719 9.06249 2.27273 9.40582 2.36857 9.93666C2.4644 10.4758 2.64523 11.1508 2.8994 12.1008L3.33107 13.7108C3.58523 14.6608 3.7669 15.3358 3.95273 15.85C4.13607 16.3583 4.30607 16.6567 4.5094 16.8733C4.87549 17.2644 5.34936 17.5382 5.87107 17.66C6.16023 17.7267 6.5044 17.725 7.03523 17.63C7.5744 17.5342 8.2494 17.3533 9.1994 17.0992C10.1494 16.8442 10.8244 16.6633 11.3394 16.4767C11.8469 16.2933 12.1452 16.1233 12.3619 15.9208C12.4769 15.8125 12.5813 15.6961 12.6752 15.5717C12.5206 15.5496 12.3667 15.5232 12.2136 15.4925C11.6536 15.3808 10.9802 15.2008 10.1511 14.9783L10.1027 14.9658C9.1869 14.72 8.46107 14.5258 7.89023 14.3192C7.30607 14.1083 6.8294 13.8675 6.4369 13.5C5.86535 12.9647 5.46543 12.2718 5.28773 11.5092C5.16607 10.9858 5.19523 10.4525 5.3044 9.84166C5.41107 9.24332 5.60607 8.51749 5.85107 7.60166L6.21273 6.25249ZM11.2019 2.36832C10.6702 2.27249 10.3269 2.27082 10.0377 2.33832C9.51603 2.4601 9.04216 2.73386 8.67607 3.12499C8.31273 3.51249 8.08857 4.11249 7.70023 5.53582L7.49773 6.28749L7.06607 7.89749C6.8119 8.84749 6.63107 9.52249 6.53523 10.0617C6.4394 10.5925 6.43773 10.9367 6.50523 11.2258C6.62701 11.7475 6.90077 12.2214 7.2919 12.5875C7.50857 12.7908 7.8069 12.96 8.3144 13.1442C8.8294 13.33 9.5044 13.5108 10.4544 13.7658C11.3086 13.995 11.9419 14.1642 12.4569 14.2658C12.9694 14.3683 13.3177 14.3933 13.6027 14.3583C13.665 14.35 13.725 14.3394 13.7827 14.3267C14.3044 14.2049 14.7783 13.9311 15.1444 13.54C15.3477 13.3233 15.5177 13.025 15.7011 12.5175C15.8869 12.0025 16.0677 11.3275 16.3227 10.3775L16.7544 8.76749C17.0086 7.81749 17.1894 7.14249 17.2852 6.60332C17.3802 6.07249 17.3827 5.72832 17.3152 5.43916C17.1935 4.91745 16.9197 4.44358 16.5286 4.07749C16.3119 3.87416 16.0136 3.70499 15.5061 3.52082C14.9902 3.33499 14.3161 3.15416 13.3661 2.89916C12.4161 2.64499 11.7411 2.46416 11.2019 2.36832ZM9.21023 8.17166C9.2315 8.09236 9.26819 8.01803 9.31819 7.95292C9.36819 7.88781 9.43053 7.83318 9.50165 7.79217C9.57277 7.75115 9.65127 7.72455 9.73267 7.71388C9.81407 7.70321 9.89678 7.70869 9.97607 7.72999L14.0011 8.80832C14.1567 8.85513 14.288 8.96074 14.3671 9.10276C14.4462 9.24477 14.4669 9.41202 14.4247 9.56901C14.3825 9.72599 14.2808 9.86037 14.1412 9.94364C14.0016 10.0269 13.8351 10.0525 13.6769 10.015L9.6519 8.93666C9.49194 8.89369 9.35558 8.78899 9.27277 8.64555C9.18995 8.50211 9.16746 8.33167 9.21023 8.17166ZM8.56273 10.5867C8.584 10.5073 8.62071 10.4329 8.67077 10.3677C8.72083 10.3025 8.78325 10.2478 8.85446 10.2068C8.92567 10.1658 9.00428 10.1392 9.08577 10.1286C9.16727 10.118 9.25006 10.1236 9.3294 10.145L11.7436 10.7917C11.9037 10.8345 12.0402 10.9393 12.1231 11.0828C12.206 11.2263 12.2285 11.3969 12.1856 11.5571C12.1428 11.7172 12.038 11.8537 11.8945 11.9366C11.751 12.0195 11.5804 12.042 11.4202 11.9992L9.00523 11.3517C8.84527 11.3087 8.70891 11.204 8.6261 11.0605C8.54329 10.9171 8.5208 10.7467 8.56357 10.5867" fill="black"/>
</svg>
