<svg width="35" height="36" viewBox="0 0 35 36" fill="none" xmlns="http://www.w3.org/2000/svg">
<circle cx="17.5" cy="18" r="17.5" fill="#FE4A23"/>
<path fill-rule="evenodd" clip-rule="evenodd" d="M18 18.8C17.7348 18.8 17.4804 18.6947 17.2929 18.5072C17.1054 18.3196 17 18.0653 17 17.8V12.8C17 12.5348 17.1054 12.2805 17.2929 12.0929C17.4804 11.9054 17.7348 11.8 18 11.8C18.2652 11.8 18.5196 11.9054 18.7071 12.0929C18.8946 12.2805 19 12.5348 19 12.8V17.8C19 18.0653 18.8946 18.3196 18.7071 18.5072C18.5196 18.6947 18.2652 18.8 18 18.8Z" fill="white"/>
<path d="M16.9473 20.958C16.9473 20.6788 17.0582 20.4109 17.2557 20.2134C17.4532 20.016 17.721 19.905 18.0003 19.905C18.2795 19.905 18.5474 20.016 18.7448 20.2134C18.9423 20.4109 19.0533 20.6788 19.0533 20.958C19.0533 21.2373 18.9423 21.5051 18.7448 21.7026C18.5474 21.9001 18.2795 22.011 18.0003 22.011C17.721 22.011 17.4532 21.9001 17.2557 21.7026C17.0582 21.5051 16.9473 21.2373 16.9473 20.958Z" fill="white"/>
<path fill-rule="evenodd" clip-rule="evenodd" d="M21.6075 9.64201L27.4835 20.362C28.9955 23.121 27.0105 26.5 23.8765 26.5H12.1245C8.99048 26.5 7.00448 23.12 8.51748 20.361L14.3935 9.64101C15.9595 6.78601 20.0415 6.78601 21.6075 9.64101V9.64201ZM19.8035 10.642C19.0215 9.21301 16.9795 9.21301 16.1975 10.642L10.3205 21.36C9.56348 22.74 10.5565 24.429 12.1235 24.429H23.8755C25.4425 24.429 26.4355 22.739 25.6785 21.359L19.8035 10.642Z" fill="white"/>
</svg>
