<svg width="20" height="20" viewBox="0 0 20 20" fill="none" xmlns="http://www.w3.org/2000/svg">
<path d="M12.917 9.16675C13.2642 9.16675 13.5595 9.04536 13.8028 8.80258C14.0462 8.5598 14.1675 8.26453 14.167 7.91675C14.1664 7.56897 14.045 7.27397 13.8028 7.03175C13.5606 6.78953 13.2653 6.66786 12.917 6.66675C12.5687 6.66564 12.2737 6.7873 12.032 7.03175C11.7903 7.27619 11.6687 7.57119 11.667 7.91675C11.6653 8.2623 11.787 8.55758 12.032 8.80258C12.277 9.04758 12.572 9.16897 12.917 9.16675ZM7.08366 9.16675C7.43088 9.16675 7.72616 9.04536 7.96949 8.80258C8.21283 8.5598 8.33422 8.26453 8.33366 7.91675C8.3331 7.56897 8.21172 7.27397 7.96949 7.03175C7.72727 6.78953 7.43199 6.66786 7.08366 6.66675C6.73533 6.66564 6.44033 6.7873 6.19866 7.03175C5.95699 7.27619 5.83533 7.57119 5.83366 7.91675C5.83199 8.2623 5.95366 8.55758 6.19866 8.80258C6.44366 9.04758 6.73866 9.16897 7.08366 9.16675ZM10.0003 18.3334C8.84755 18.3334 7.76422 18.1145 6.75033 17.6767C5.73644 17.239 4.85449 16.6454 4.10449 15.8959C3.35449 15.1465 2.76088 14.2645 2.32366 13.2501C1.88644 12.2356 1.66755 11.1523 1.66699 10.0001C1.66644 8.84786 1.88533 7.76453 2.32366 6.75008C2.76199 5.73564 3.3556 4.85369 4.10449 4.10425C4.85338 3.3548 5.73533 2.76119 6.75033 2.32341C7.76533 1.88564 8.84866 1.66675 10.0003 1.66675C11.152 1.66675 12.2353 1.88564 13.2503 2.32341C14.2653 2.76119 15.1473 3.3548 15.8962 4.10425C16.6451 4.85369 17.2389 5.73564 17.6778 6.75008C18.1167 7.76453 18.3353 8.84786 18.3337 10.0001C18.332 11.1523 18.1131 12.2356 17.677 13.2501C17.2409 14.2645 16.6473 15.1465 15.8962 15.8959C15.1451 16.6454 14.2631 17.2392 13.2503 17.6776C12.2375 18.1159 11.1542 18.3345 10.0003 18.3334ZM10.0003 16.6667C11.8614 16.6667 13.4378 16.0209 14.7295 14.7292C16.0212 13.4376 16.667 11.8612 16.667 10.0001C16.667 8.13897 16.0212 6.56258 14.7295 5.27091C13.4378 3.97925 11.8614 3.33341 10.0003 3.33341C8.13921 3.33341 6.56283 3.97925 5.27116 5.27091C3.97949 6.56258 3.33366 8.13897 3.33366 10.0001C3.33366 11.8612 3.97949 13.4376 5.27116 14.7292C6.56283 16.0209 8.13921 16.6667 10.0003 16.6667ZM10.0003 14.5834C10.8059 14.5834 11.5489 14.389 12.2295 14.0001C12.91 13.6112 13.4587 13.0834 13.8753 12.4167C13.9587 12.2501 13.9517 12.0834 13.8545 11.9167C13.7573 11.7501 13.6114 11.6667 13.417 11.6667H6.58366C6.38922 11.6667 6.24338 11.7501 6.14616 11.9167C6.04894 12.0834 6.04199 12.2501 6.12533 12.4167C6.54199 13.0834 7.09422 13.6112 7.78199 14.0001C8.46977 14.389 9.20922 14.5834 10.0003 14.5834Z" fill="black"/>
</svg>
