<svg width="20" height="20" viewBox="0 0 20 20" fill="none" xmlns="http://www.w3.org/2000/svg">
<path d="M6.99489 2.41293C6.97004 2.28236 6.8952 2.16666 6.78631 2.09045C6.67741 2.01424 6.54307 1.98356 6.41189 2.00493C6.34729 2.0154 6.28543 2.03871 6.22998 2.07348C6.17454 2.10826 6.12661 2.15378 6.08905 2.20738C6.05149 2.26098 6.02504 2.32156 6.01127 2.38554C5.9975 2.44953 5.9967 2.51562 6.00889 2.57993L6.01889 2.63293C4.28989 3.20493 3.27089 4.12193 2.69189 5.14593C2.12689 6.14593 2.01489 7.19593 2.00189 7.99993H1.99989V8.00493L1.32989 8.84193C1.20045 9.00365 1.10591 9.19044 1.05222 9.39051C0.998539 9.59059 0.986877 9.79961 1.01797 10.0044C1.04907 10.2092 1.12225 10.4054 1.2329 10.5805C1.34355 10.7556 1.48928 10.9059 1.66089 11.0219L10.3159 16.8819C11.3915 17.6104 12.6608 17.9998 13.9599 17.9999H16.7499C17.0454 17.9999 17.3379 17.9417 17.6109 17.8287C17.8839 17.7156 18.132 17.5498 18.3409 17.3409C18.5498 17.132 18.7155 16.8839 18.8286 16.611C18.9417 16.338 18.9999 16.0454 18.9999 15.7499C18.9999 14.4899 17.9759 13.5719 16.9299 13.2399C16.3209 13.0469 15.7499 12.7309 15.4159 12.2349L12.3989 7.04493C12.4616 7.03559 12.5239 7.02559 12.5859 7.01493C12.6504 7.00444 12.7122 6.98116 12.7675 6.94646C12.8229 6.91175 12.8708 6.86632 12.9083 6.81283C12.9459 6.75935 12.9723 6.69889 12.9862 6.63502C13 6.57115 13.0009 6.50516 12.9889 6.44093C12.9643 6.31018 12.8895 6.19423 12.7806 6.11782C12.6717 6.04141 12.5372 6.01058 12.4059 6.03193C9.84589 6.46493 7.43689 4.82393 6.99489 2.41293ZM11.2699 7.08993L14.5599 12.7519L14.5759 12.7779C15.0909 13.5529 15.9159 13.9679 16.6289 14.1939C17.1139 14.3479 17.5169 14.6429 17.7589 15.0009H13.9899C13.2922 15.0012 12.6104 14.793 12.0319 14.4029L10.3389 13.2599L11.3709 12.6639C11.5132 12.5819 11.6379 12.4726 11.7379 12.3424C11.8379 12.2121 11.9113 12.0634 11.9538 11.9048C11.9963 11.7462 12.0072 11.5808 11.9858 11.4179C11.9643 11.2551 11.911 11.0981 11.8289 10.9559L11.0609 9.62593C10.9788 9.48375 10.8694 9.35914 10.7392 9.25923C10.6089 9.15931 10.4602 9.08604 10.3016 9.0436C10.143 9.00116 9.97754 8.99039 9.81476 9.01189C9.65199 9.03339 9.49504 9.08676 9.35289 9.16893L6.61589 10.7489L5.66589 10.1089L6.37589 9.69893C6.51807 9.61681 6.64268 9.50748 6.74259 9.37719C6.84251 9.2469 6.91578 9.09821 6.95822 8.9396C7.00066 8.78099 7.01143 8.61557 6.98993 8.4528C6.96843 8.29002 6.91506 8.13308 6.83289 7.99093L4.73789 4.35993C5.14889 4.06993 5.66089 3.80793 6.29989 3.59293C7.10089 5.60393 9.06489 6.96493 11.2689 7.08893M9.28289 13.7519L9.33289 13.8399L9.37589 13.8149L11.4739 15.2299C12.2174 15.7317 13.0939 15.9999 13.9909 15.9999H17.9749C17.8589 16.5699 17.3549 16.9999 16.7499 16.9999H13.9599C12.8604 16.9999 11.7862 16.6704 10.8759 16.0539L2.22189 10.1939C2.16466 10.1552 2.11607 10.1051 2.07919 10.0467C2.04231 9.98826 2.01793 9.92284 2.00759 9.85453C1.99726 9.78622 2.00119 9.71652 2.01914 9.6498C2.03709 9.58309 2.06867 9.52082 2.11189 9.46693L2.39789 9.10793L6.55089 11.9089L6.56489 11.9329L6.57589 11.9259L9.28289 13.7519ZM9.41689 12.6369L7.53989 11.3699L9.85389 10.0339C9.88232 10.0174 9.91372 10.0067 9.9463 10.0023C9.97888 9.99794 10.012 10 10.0438 10.0085C10.0755 10.017 10.1053 10.0316 10.1314 10.0516C10.1575 10.0715 10.1794 10.0965 10.1959 10.1249L10.9639 11.4549C10.9804 11.4834 10.9911 11.5149 10.9953 11.5475C10.9996 11.5801 10.9974 11.6133 10.9889 11.645C10.9803 11.6768 10.9656 11.7066 10.9455 11.7326C10.9255 11.7587 10.9004 11.7806 10.8719 11.7969L9.41689 12.6369ZM3.56289 5.63693C3.67489 5.43693 3.81356 5.23926 3.97889 5.04393L5.96989 8.48993C6.00284 8.54736 6.01166 8.61552 5.99441 8.67945C5.97717 8.74338 5.93526 8.79786 5.87789 8.83093L4.74589 9.48493L2.99989 8.30793V8.17993C2.99989 7.41493 3.08189 6.48893 3.56289 5.63693Z" fill="black"/>
</svg>
