<svg width="24" height="25" viewBox="0 0 24 25" fill="none" xmlns="http://www.w3.org/2000/svg">
<g clip-path="url(#clip0_35_2168)">
<path d="M15.334 3.25281H4.66732C4.3137 3.25281 3.97456 3.39328 3.72451 3.64333C3.47446 3.89338 3.33398 4.23252 3.33398 4.58614V20.5861C3.33398 20.9398 3.47446 21.2789 3.72451 21.5289C3.97456 21.779 4.3137 21.9195 4.66732 21.9195H15.334C15.6876 21.9195 16.0267 21.779 16.2768 21.5289C16.5268 21.2789 16.6673 20.9398 16.6673 20.5861V16.5861H10.4207C10.2438 16.5861 10.0743 16.5159 9.94925 16.3909C9.82422 16.2659 9.75398 16.0963 9.75398 15.9195C9.75398 15.7427 9.82422 15.5731 9.94925 15.4481C10.0743 15.323 10.2438 15.2528 10.4207 15.2528H16.6673V4.58614C16.6673 4.23252 16.5268 3.89338 16.2768 3.64333C16.0267 3.39328 15.6876 3.25281 15.334 3.25281Z" fill="#FE4A23"/>
<path d="M18.7727 12.1062C18.6451 11.997 18.4811 11.9399 18.3133 11.9464C18.1455 11.9529 17.9864 12.0225 17.8676 12.1412C17.7489 12.2599 17.6794 12.4191 17.6729 12.5869C17.6664 12.7546 17.7235 12.9187 17.8327 13.0462L20.086 15.2529H16.666V16.5862H20.086L17.8327 18.8929C17.7629 18.9527 17.7062 19.0262 17.6662 19.1089C17.6262 19.1916 17.6037 19.2817 17.6001 19.3735C17.5966 19.4653 17.6121 19.5569 17.6456 19.6424C17.6791 19.728 17.7299 19.8057 17.7949 19.8707C17.8599 19.9356 17.9376 19.9865 18.0231 20.02C18.1087 20.0535 18.2002 20.069 18.2921 20.0654C18.3839 20.0619 18.474 20.0394 18.5567 19.9994C18.6394 19.9594 18.7129 19.9027 18.7727 19.8329L22.666 15.9662L18.7727 12.1062Z" fill="#FE4A23"/>
</g>
<defs>
<clipPath id="clip0_35_2168">
<rect width="24" height="24" fill="white" transform="translate(0 0.586182)"/>
</clipPath>
</defs>
</svg>
