<svg width="15" height="19" viewBox="0 0 15 19" fill="none" xmlns="http://www.w3.org/2000/svg">
<path d="M12.9414 6.5H12.0664V4.75C12.0664 2.335 10.1064 0.375 7.69141 0.375C5.27641 0.375 3.31641 2.335 3.31641 4.75V6.5H2.44141C1.47891 6.5 0.691406 7.2875 0.691406 8.25V17C0.691406 17.9625 1.47891 18.75 2.44141 18.75H12.9414C13.9039 18.75 14.6914 17.9625 14.6914 17V8.25C14.6914 7.2875 13.9039 6.5 12.9414 6.5ZM7.69141 14.375C6.72891 14.375 5.94141 13.5875 5.94141 12.625C5.94141 11.6625 6.72891 10.875 7.69141 10.875C8.65391 10.875 9.44141 11.6625 9.44141 12.625C9.44141 13.5875 8.65391 14.375 7.69141 14.375ZM5.06641 6.5V4.75C5.06641 3.2975 6.23891 2.125 7.69141 2.125C9.14391 2.125 10.3164 3.2975 10.3164 4.75V6.5H5.06641Z" fill="black"/>
</svg>
