<svg width="430" height="932" viewBox="0 0 430 932" fill="none" xmlns="http://www.w3.org/2000/svg">
<rect width="430" height="932" fill="url(#paint0_linear_32_5862)"/>
<path d="M223.669 452.194V507.158H212.236V452.194H223.669ZM254.755 465.935V474.523H229.93V465.935H254.755ZM235.566 456.058H246.999V494.491C246.999 495.546 247.16 496.369 247.482 496.96C247.804 497.532 248.251 497.935 248.824 498.168C249.414 498.4 250.094 498.517 250.863 498.517C251.4 498.517 251.937 498.472 252.474 498.382C253.01 498.275 253.422 498.194 253.708 498.141L255.506 506.649C254.934 506.827 254.129 507.033 253.091 507.266C252.053 507.516 250.792 507.668 249.307 507.722C246.551 507.829 244.136 507.463 242.06 506.622C240.003 505.781 238.401 504.475 237.256 502.703C236.111 500.932 235.548 498.695 235.566 495.994V456.058ZM273.958 507.937C271.328 507.937 268.984 507.481 266.926 506.568C264.869 505.638 263.24 504.269 262.042 502.462C260.861 500.637 260.27 498.364 260.27 495.645C260.27 493.355 260.691 491.431 261.532 489.875C262.373 488.318 263.518 487.065 264.967 486.117C266.416 485.169 268.062 484.453 269.905 483.97C271.766 483.487 273.716 483.147 275.756 482.95C278.154 482.7 280.086 482.467 281.553 482.252C283.02 482.02 284.085 481.68 284.747 481.233C285.409 480.785 285.74 480.123 285.74 479.247V479.086C285.74 477.386 285.203 476.071 284.13 475.14C283.074 474.21 281.571 473.745 279.621 473.745C277.563 473.745 275.926 474.201 274.709 475.113C273.493 476.008 272.687 477.135 272.294 478.495L261.72 477.636C262.256 475.131 263.312 472.966 264.886 471.141C266.461 469.299 268.492 467.885 270.979 466.901C273.484 465.899 276.382 465.398 279.674 465.398C281.965 465.398 284.156 465.666 286.25 466.203C288.361 466.74 290.231 467.572 291.859 468.699C293.505 469.826 294.802 471.276 295.751 473.047C296.699 474.8 297.173 476.903 297.173 479.354V507.158H286.33V501.442H286.008C285.346 502.73 284.461 503.866 283.351 504.85C282.242 505.817 280.909 506.577 279.352 507.132C277.796 507.668 275.998 507.937 273.958 507.937ZM277.232 500.046C278.914 500.046 280.399 499.715 281.687 499.053C282.975 498.373 283.986 497.461 284.72 496.316C285.454 495.171 285.82 493.873 285.82 492.424V488.05C285.463 488.282 284.97 488.497 284.344 488.694C283.736 488.873 283.047 489.043 282.278 489.204C281.508 489.347 280.739 489.481 279.97 489.606C279.2 489.714 278.502 489.812 277.876 489.901C276.534 490.098 275.362 490.411 274.36 490.841C273.358 491.27 272.58 491.852 272.025 492.585C271.471 493.301 271.193 494.196 271.193 495.269C271.193 496.826 271.757 498.016 272.884 498.839C274.029 499.644 275.479 500.046 277.232 500.046ZM312.726 507.856C310.954 507.856 309.434 507.23 308.163 505.978C306.911 504.707 306.285 503.186 306.285 501.415C306.285 499.662 306.911 498.159 308.163 496.906C309.434 495.654 310.954 495.028 312.726 495.028C314.443 495.028 315.946 495.654 317.235 496.906C318.523 498.159 319.167 499.662 319.167 501.415C319.167 502.596 318.863 503.678 318.254 504.662C317.664 505.629 316.886 506.407 315.92 506.997C314.953 507.57 313.889 507.856 312.726 507.856Z" fill="white"/>
<rect x="108.962" y="457.209" width="79.4841" height="15.1153" transform="rotate(23.2319 108.962 457.209)" fill="white"/>
<rect x="169.527" y="499.587" width="79.4854" height="15.1153" transform="rotate(-66.7681 169.527 499.587)" fill="white"/>
<circle cx="157.982" cy="442.024" r="15.3043" fill="white"/>
<path d="M88.1186 530V519.818H91.7479C92.5367 519.818 93.1913 519.954 93.7116 520.226C94.2353 520.498 94.6264 520.874 94.8849 521.354C95.1435 521.832 95.2727 522.384 95.2727 523.01C95.2727 523.633 95.1418 524.182 94.88 524.656C94.6214 525.126 94.2304 525.492 93.7067 525.754C93.1863 526.016 92.5317 526.147 91.7429 526.147H88.9936V524.825H91.6037C92.1009 524.825 92.5052 524.753 92.8168 524.611C93.1316 524.468 93.362 524.261 93.5078 523.989C93.6536 523.718 93.7266 523.391 93.7266 523.01C93.7266 522.625 93.652 522.292 93.5028 522.011C93.357 521.729 93.1267 521.513 92.8118 521.364C92.5002 521.212 92.0909 521.136 91.5838 521.136H89.6548V530H88.1186ZM93.1449 525.406L95.6605 530H93.9105L91.4446 525.406H93.1449ZM100.218 530.154C99.4658 530.154 98.8179 529.993 98.2743 529.672C97.7341 529.347 97.3165 528.891 97.0215 528.305C96.7298 527.715 96.584 527.024 96.584 526.232C96.584 525.449 96.7298 524.76 97.0215 524.163C97.3165 523.567 97.7275 523.101 98.2544 522.766C98.7847 522.432 99.4045 522.264 100.114 522.264C100.545 522.264 100.962 522.335 101.367 522.478C101.771 522.621 102.134 522.844 102.455 523.149C102.777 523.454 103.03 523.85 103.216 524.337C103.402 524.821 103.494 525.41 103.494 526.102V526.629H97.4242V525.516H102.038C102.038 525.125 101.958 524.778 101.799 524.477C101.64 524.172 101.416 523.931 101.128 523.756C100.843 523.58 100.508 523.492 100.124 523.492C99.7061 523.492 99.3416 523.595 99.03 523.8C98.7218 524.003 98.4831 524.268 98.3141 524.596C98.1484 524.921 98.0655 525.274 98.0655 525.655V526.525C98.0655 527.035 98.155 527.469 98.334 527.827C98.5163 528.185 98.7698 528.459 99.0946 528.648C99.4194 528.833 99.7989 528.926 100.233 528.926C100.515 528.926 100.772 528.886 101.004 528.807C101.236 528.724 101.436 528.601 101.605 528.439C101.774 528.277 101.904 528.076 101.993 527.837L103.4 528.091C103.287 528.505 103.085 528.868 102.794 529.18C102.505 529.488 102.142 529.728 101.705 529.901C101.271 530.07 100.775 530.154 100.218 530.154ZM108.36 530.154C107.621 530.154 106.985 529.987 106.451 529.652C105.921 529.314 105.513 528.848 105.228 528.255C104.943 527.662 104.801 526.982 104.801 526.217C104.801 525.441 104.947 524.757 105.238 524.163C105.53 523.567 105.941 523.101 106.471 522.766C107.002 522.432 107.626 522.264 108.346 522.264C108.926 522.264 109.443 522.372 109.897 522.587C110.351 522.799 110.717 523.098 110.995 523.482C111.277 523.867 111.444 524.316 111.498 524.83H110.051C109.971 524.472 109.789 524.163 109.504 523.905C109.222 523.646 108.844 523.517 108.37 523.517C107.956 523.517 107.593 523.626 107.282 523.845C106.973 524.061 106.733 524.369 106.561 524.77C106.388 525.168 106.302 525.638 106.302 526.182C106.302 526.739 106.387 527.219 106.556 527.624C106.725 528.028 106.963 528.341 107.272 528.563C107.583 528.785 107.949 528.896 108.37 528.896C108.652 528.896 108.907 528.845 109.136 528.742C109.368 528.636 109.562 528.485 109.718 528.29C109.877 528.094 109.988 527.859 110.051 527.584H111.498C111.444 528.078 111.284 528.518 111.015 528.906C110.747 529.294 110.387 529.599 109.936 529.821C109.489 530.043 108.964 530.154 108.36 530.154ZM116.304 530.154C115.588 530.154 114.963 529.99 114.43 529.662C113.896 529.334 113.482 528.875 113.187 528.285C112.892 527.695 112.744 527.005 112.744 526.217C112.744 525.424 112.892 524.732 113.187 524.138C113.482 523.545 113.896 523.085 114.43 522.756C114.963 522.428 115.588 522.264 116.304 522.264C117.02 522.264 117.644 522.428 118.178 522.756C118.712 523.085 119.126 523.545 119.421 524.138C119.716 524.732 119.863 525.424 119.863 526.217C119.863 527.005 119.716 527.695 119.421 528.285C119.126 528.875 118.712 529.334 118.178 529.662C117.644 529.99 117.02 530.154 116.304 530.154ZM116.309 528.906C116.773 528.906 117.157 528.784 117.462 528.538C117.767 528.293 117.992 527.967 118.138 527.559C118.287 527.151 118.362 526.702 118.362 526.212C118.362 525.724 118.287 525.277 118.138 524.869C117.992 524.458 117.767 524.129 117.462 523.88C117.157 523.631 116.773 523.507 116.309 523.507C115.841 523.507 115.454 523.631 115.145 523.88C114.84 524.129 114.613 524.458 114.464 524.869C114.318 525.277 114.246 525.724 114.246 526.212C114.246 526.702 114.318 527.151 114.464 527.559C114.613 527.967 114.84 528.293 115.145 528.538C115.454 528.784 115.841 528.906 116.309 528.906ZM121.523 530V522.364H122.96V523.577H123.039C123.178 523.166 123.424 522.843 123.775 522.607C124.129 522.369 124.531 522.249 124.978 522.249C125.071 522.249 125.18 522.253 125.306 522.259C125.435 522.266 125.536 522.274 125.609 522.284V523.706C125.55 523.689 125.444 523.671 125.291 523.651C125.139 523.628 124.986 523.616 124.834 523.616C124.482 523.616 124.169 523.691 123.894 523.84C123.622 523.986 123.407 524.19 123.248 524.452C123.089 524.71 123.009 525.005 123.009 525.337V530H121.523ZM129.481 530.149C128.865 530.149 128.314 529.992 127.83 529.677C127.35 529.359 126.972 528.906 126.697 528.32C126.425 527.73 126.289 527.022 126.289 526.197C126.289 525.371 126.427 524.665 126.702 524.079C126.98 523.492 127.361 523.043 127.845 522.732C128.329 522.42 128.878 522.264 129.491 522.264C129.965 522.264 130.346 522.344 130.634 522.503C130.926 522.659 131.151 522.841 131.311 523.05C131.473 523.259 131.599 523.442 131.688 523.602H131.778V519.818H133.264V530H131.813V528.812H131.688C131.599 528.974 131.47 529.16 131.301 529.369C131.135 529.577 130.906 529.76 130.615 529.915C130.323 530.071 129.945 530.149 129.481 530.149ZM129.809 528.881C130.237 528.881 130.598 528.769 130.893 528.543C131.191 528.315 131.417 527.998 131.569 527.594C131.725 527.189 131.803 526.719 131.803 526.182C131.803 525.652 131.727 525.187 131.574 524.79C131.422 524.392 131.198 524.082 130.903 523.86C130.608 523.638 130.243 523.527 129.809 523.527C129.362 523.527 128.989 523.643 128.691 523.875C128.392 524.107 128.167 524.424 128.014 524.825C127.865 525.226 127.791 525.678 127.791 526.182C127.791 526.692 127.867 527.151 128.019 527.559C128.172 527.967 128.397 528.29 128.695 528.528C128.997 528.764 129.368 528.881 129.809 528.881ZM137.32 528.608L137.245 529.15C137.196 529.548 137.111 529.962 136.992 530.393C136.876 530.827 136.755 531.23 136.629 531.601C136.506 531.972 136.405 532.267 136.326 532.486H135.272C135.315 532.28 135.374 532.002 135.451 531.651C135.527 531.303 135.601 530.913 135.674 530.482C135.747 530.051 135.802 529.612 135.838 529.165L135.888 528.608H137.32ZM143.08 530V519.818H146.709C147.501 519.818 148.157 519.962 148.678 520.251C149.198 520.539 149.587 520.933 149.846 521.434C150.104 521.931 150.234 522.491 150.234 523.114C150.234 523.741 150.103 524.304 149.841 524.805C149.582 525.302 149.191 525.696 148.668 525.988C148.147 526.276 147.493 526.42 146.704 526.42H144.208V525.118H146.565C147.065 525.118 147.471 525.032 147.783 524.859C148.094 524.684 148.323 524.445 148.469 524.143C148.615 523.842 148.688 523.499 148.688 523.114C148.688 522.73 148.615 522.388 148.469 522.09C148.323 521.792 148.093 521.558 147.778 521.389C147.466 521.22 147.055 521.136 146.545 521.136H144.616V530H143.08ZM151.915 530V522.364H153.352V523.577H153.432C153.571 523.166 153.816 522.843 154.167 522.607C154.522 522.369 154.923 522.249 155.371 522.249C155.463 522.249 155.573 522.253 155.699 522.259C155.828 522.266 155.929 522.274 156.002 522.284V523.706C155.942 523.689 155.836 523.671 155.684 523.651C155.531 523.628 155.379 523.616 155.226 523.616C154.875 523.616 154.562 523.691 154.287 523.84C154.015 523.986 153.8 524.19 153.64 524.452C153.481 524.71 153.402 525.005 153.402 525.337V530H151.915ZM160.306 530.154C159.554 530.154 158.906 529.993 158.362 529.672C157.822 529.347 157.404 528.891 157.109 528.305C156.818 527.715 156.672 527.024 156.672 526.232C156.672 525.449 156.818 524.76 157.109 524.163C157.404 523.567 157.815 523.101 158.342 522.766C158.873 522.432 159.492 522.264 160.202 522.264C160.633 522.264 161.05 522.335 161.455 522.478C161.859 522.621 162.222 522.844 162.543 523.149C162.865 523.454 163.118 523.85 163.304 524.337C163.49 524.821 163.582 525.41 163.582 526.102V526.629H157.512V525.516H162.126C162.126 525.125 162.046 524.778 161.887 524.477C161.728 524.172 161.504 523.931 161.216 523.756C160.931 523.58 160.596 523.492 160.212 523.492C159.794 523.492 159.429 523.595 159.118 523.8C158.81 524.003 158.571 524.268 158.402 524.596C158.236 524.921 158.153 525.274 158.153 525.655V526.525C158.153 527.035 158.243 527.469 158.422 527.827C158.604 528.185 158.858 528.459 159.183 528.648C159.507 528.833 159.887 528.926 160.321 528.926C160.603 528.926 160.86 528.886 161.092 528.807C161.324 528.724 161.524 528.601 161.693 528.439C161.862 528.277 161.991 528.076 162.081 527.837L163.488 528.091C163.375 528.505 163.173 528.868 162.881 529.18C162.593 529.488 162.23 529.728 161.793 529.901C161.358 530.07 160.863 530.154 160.306 530.154ZM171.546 522.364L168.776 530H167.186L164.411 522.364H166.007L167.941 528.24H168.021L169.95 522.364H171.546ZM175.974 530.154C175.222 530.154 174.574 529.993 174.03 529.672C173.49 529.347 173.072 528.891 172.777 528.305C172.486 527.715 172.34 527.024 172.34 526.232C172.34 525.449 172.486 524.76 172.777 524.163C173.072 523.567 173.483 523.101 174.01 522.766C174.541 522.432 175.16 522.264 175.87 522.264C176.301 522.264 176.718 522.335 177.123 522.478C177.527 522.621 177.89 522.844 178.211 523.149C178.533 523.454 178.786 523.85 178.972 524.337C179.158 524.821 179.25 525.41 179.25 526.102V526.629H173.18V525.516H177.794C177.794 525.125 177.714 524.778 177.555 524.477C177.396 524.172 177.172 523.931 176.884 523.756C176.599 523.58 176.264 523.492 175.88 523.492C175.462 523.492 175.097 523.595 174.786 523.8C174.478 524.003 174.239 524.268 174.07 524.596C173.904 524.921 173.821 525.274 173.821 525.655V526.525C173.821 527.035 173.911 527.469 174.09 527.827C174.272 528.185 174.526 528.459 174.85 528.648C175.175 528.833 175.555 528.926 175.989 528.926C176.271 528.926 176.528 528.886 176.76 528.807C176.992 528.724 177.192 528.601 177.361 528.439C177.53 528.277 177.659 528.076 177.749 527.837L179.156 528.091C179.043 528.505 178.841 528.868 178.549 529.18C178.261 529.488 177.898 529.728 177.461 529.901C177.026 530.07 176.531 530.154 175.974 530.154ZM182.386 525.466V530H180.9V522.364H182.327V523.607H182.421C182.597 523.202 182.872 522.877 183.246 522.632C183.624 522.387 184.1 522.264 184.673 522.264C185.193 522.264 185.649 522.374 186.04 522.592C186.431 522.808 186.735 523.129 186.95 523.557C187.166 523.984 187.273 524.513 187.273 525.143V530H185.787V525.322C185.787 524.768 185.643 524.336 185.354 524.024C185.066 523.709 184.67 523.552 184.166 523.552C183.821 523.552 183.515 523.626 183.246 523.776C182.981 523.925 182.771 524.143 182.615 524.432C182.462 524.717 182.386 525.062 182.386 525.466ZM192.831 522.364V523.557H188.66V522.364H192.831ZM189.779 520.534H191.265V527.758C191.265 528.046 191.309 528.263 191.395 528.409C191.481 528.552 191.592 528.649 191.728 528.702C191.867 528.752 192.018 528.777 192.18 528.777C192.3 528.777 192.404 528.769 192.493 528.752C192.583 528.736 192.653 528.722 192.702 528.712L192.971 529.94C192.885 529.973 192.762 530.007 192.603 530.04C192.444 530.076 192.245 530.096 192.006 530.099C191.615 530.106 191.251 530.036 190.912 529.891C190.574 529.745 190.301 529.519 190.092 529.214C189.883 528.91 189.779 528.527 189.779 528.066V520.534ZM196.41 528.608L196.335 529.15C196.286 529.548 196.201 529.962 196.082 530.393C195.966 530.827 195.845 531.23 195.719 531.601C195.596 531.972 195.495 532.267 195.415 532.486H194.362C194.405 532.28 194.464 532.002 194.54 531.651C194.617 531.303 194.691 530.913 194.764 530.482C194.837 530.051 194.892 529.612 194.928 529.165L194.978 528.608H196.41ZM202.169 530V519.818H205.898C206.621 519.818 207.219 519.937 207.693 520.176C208.167 520.411 208.521 520.731 208.757 521.136C208.992 521.537 209.11 521.989 209.11 522.493C209.11 522.917 209.032 523.275 208.876 523.567C208.72 523.855 208.511 524.087 208.25 524.263C207.991 524.435 207.706 524.561 207.395 524.641V524.74C207.733 524.757 208.062 524.866 208.384 525.068C208.709 525.267 208.977 525.55 209.189 525.918C209.401 526.286 209.507 526.734 209.507 527.261C209.507 527.781 209.385 528.248 209.14 528.663C208.898 529.074 208.523 529.4 208.016 529.642C207.509 529.881 206.861 530 206.072 530H202.169ZM203.706 528.683H205.923C206.659 528.683 207.186 528.54 207.504 528.255C207.822 527.97 207.981 527.614 207.981 527.186C207.981 526.865 207.9 526.57 207.738 526.301C207.575 526.033 207.343 525.819 207.042 525.66C206.743 525.501 206.389 525.421 205.978 525.421H203.706V528.683ZM203.706 524.223H205.764C206.109 524.223 206.418 524.157 206.694 524.024C206.972 523.892 207.192 523.706 207.355 523.467C207.52 523.225 207.603 522.94 207.603 522.612C207.603 522.191 207.456 521.838 207.161 521.553C206.866 521.268 206.413 521.126 205.804 521.126H203.706V524.223ZM214.501 530.154C213.749 530.154 213.101 529.993 212.558 529.672C212.017 529.347 211.6 528.891 211.305 528.305C211.013 527.715 210.867 527.024 210.867 526.232C210.867 525.449 211.013 524.76 211.305 524.163C211.6 523.567 212.011 523.101 212.538 522.766C213.068 522.432 213.688 522.264 214.397 522.264C214.828 522.264 215.246 522.335 215.65 522.478C216.054 522.621 216.417 522.844 216.739 523.149C217.06 523.454 217.314 523.85 217.499 524.337C217.685 524.821 217.778 525.41 217.778 526.102V526.629H211.707V525.516H216.321C216.321 525.125 216.241 524.778 216.082 524.477C215.923 524.172 215.7 523.931 215.411 523.756C215.126 523.58 214.791 523.492 214.407 523.492C213.989 523.492 213.625 523.595 213.313 523.8C213.005 524.003 212.766 524.268 212.597 524.596C212.432 524.921 212.349 525.274 212.349 525.655V526.525C212.349 527.035 212.438 527.469 212.617 527.827C212.799 528.185 213.053 528.459 213.378 528.648C213.703 528.833 214.082 528.926 214.516 528.926C214.798 528.926 215.055 528.886 215.287 528.807C215.519 528.724 215.719 528.601 215.888 528.439C216.058 528.277 216.187 528.076 216.276 527.837L217.683 528.091C217.571 528.505 217.368 528.868 217.077 529.18C216.788 529.488 216.425 529.728 215.988 529.901C215.554 530.07 215.058 530.154 214.501 530.154ZM223.251 530V519.818H224.788V524.243H229.864V519.818H231.405V530H229.864V525.56H224.788V530H223.251ZM236.814 530.154C236.062 530.154 235.414 529.993 234.87 529.672C234.33 529.347 233.912 528.891 233.617 528.305C233.326 527.715 233.18 527.024 233.18 526.232C233.18 525.449 233.326 524.76 233.617 524.163C233.912 523.567 234.323 523.101 234.85 522.766C235.38 522.432 236 522.264 236.71 522.264C237.14 522.264 237.558 522.335 237.962 522.478C238.367 522.621 238.73 522.844 239.051 523.149C239.373 523.454 239.626 523.85 239.812 524.337C239.997 524.821 240.09 525.41 240.09 526.102V526.629H234.02V525.516H238.634C238.634 525.125 238.554 524.778 238.395 524.477C238.236 524.172 238.012 523.931 237.724 523.756C237.439 523.58 237.104 523.492 236.719 523.492C236.302 523.492 235.937 523.595 235.626 523.8C235.317 524.003 235.079 524.268 234.91 524.596C234.744 524.921 234.661 525.274 234.661 525.655V526.525C234.661 527.035 234.751 527.469 234.93 527.827C235.112 528.185 235.366 528.459 235.69 528.648C236.015 528.833 236.395 528.926 236.829 528.926C237.111 528.926 237.367 528.886 237.599 528.807C237.831 528.724 238.032 528.601 238.201 528.439C238.37 528.277 238.499 528.076 238.589 527.837L239.996 528.091C239.883 528.505 239.681 528.868 239.389 529.18C239.101 529.488 238.738 529.728 238.3 529.901C237.866 530.07 237.371 530.154 236.814 530.154ZM243.962 530.169C243.478 530.169 243.04 530.08 242.649 529.901C242.258 529.718 241.948 529.455 241.72 529.11C241.494 528.765 241.382 528.343 241.382 527.842C241.382 527.411 241.464 527.057 241.63 526.778C241.796 526.5 242.02 526.28 242.301 526.117C242.583 525.955 242.898 525.832 243.246 525.749C243.594 525.666 243.949 525.603 244.31 525.56C244.767 525.507 245.138 525.464 245.423 525.431C245.709 525.395 245.916 525.337 246.045 525.257C246.174 525.178 246.239 525.048 246.239 524.869V524.835C246.239 524.4 246.116 524.064 245.871 523.825C245.629 523.587 245.268 523.467 244.787 523.467C244.287 523.467 243.892 523.578 243.604 523.8C243.319 524.019 243.122 524.263 243.012 524.531L241.615 524.213C241.781 523.749 242.023 523.375 242.341 523.089C242.663 522.801 243.032 522.592 243.45 522.463C243.867 522.33 244.307 522.264 244.767 522.264C245.072 522.264 245.395 522.301 245.737 522.374C246.081 522.443 246.403 522.572 246.701 522.761C247.003 522.95 247.25 523.22 247.442 523.572C247.634 523.92 247.73 524.372 247.73 524.929V530H246.279V528.956H246.219C246.123 529.148 245.979 529.337 245.786 529.523C245.594 529.708 245.347 529.862 245.046 529.985C244.744 530.108 244.383 530.169 243.962 530.169ZM244.285 528.976C244.696 528.976 245.047 528.895 245.339 528.732C245.634 528.57 245.858 528.358 246.01 528.096C246.166 527.831 246.244 527.547 246.244 527.246V526.261C246.191 526.314 246.088 526.364 245.936 526.411C245.786 526.454 245.616 526.492 245.423 526.525C245.231 526.555 245.044 526.583 244.862 526.609C244.679 526.633 244.527 526.652 244.404 526.669C244.116 526.705 243.852 526.767 243.614 526.853C243.378 526.939 243.19 527.063 243.047 527.226C242.908 527.385 242.838 527.597 242.838 527.862C242.838 528.23 242.974 528.509 243.246 528.697C243.518 528.883 243.864 528.976 244.285 528.976ZM251.197 519.818V530H249.71V519.818H251.197ZM256.761 522.364V523.557H252.59V522.364H256.761ZM253.709 520.534H255.195V527.758C255.195 528.046 255.238 528.263 255.324 528.409C255.411 528.552 255.522 528.649 255.657 528.702C255.797 528.752 255.948 528.777 256.11 528.777C256.229 528.777 256.334 528.769 256.423 528.752C256.513 528.736 256.582 528.722 256.632 528.712L256.9 529.94C256.814 529.973 256.692 530.007 256.532 530.04C256.373 530.076 256.175 530.096 255.936 530.099C255.545 530.106 255.18 530.036 254.842 529.891C254.504 529.745 254.231 529.519 254.022 529.214C253.813 528.91 253.709 528.527 253.709 528.066V520.534ZM260.056 525.466V530H258.57V519.818H260.036V523.607H260.131C260.31 523.196 260.583 522.869 260.951 522.627C261.319 522.385 261.799 522.264 262.393 522.264C262.916 522.264 263.374 522.372 263.765 522.587C264.159 522.803 264.464 523.124 264.68 523.552C264.898 523.976 265.008 524.506 265.008 525.143V530H263.521V525.322C263.521 524.762 263.377 524.327 263.089 524.019C262.8 523.708 262.399 523.552 261.886 523.552C261.534 523.552 261.219 523.626 260.941 523.776C260.666 523.925 260.449 524.143 260.29 524.432C260.134 524.717 260.056 525.062 260.056 525.466ZM267.658 532.864C267.436 532.864 267.233 532.845 267.051 532.809C266.869 532.776 266.733 532.739 266.643 532.7L267.001 531.482C267.273 531.554 267.515 531.586 267.727 531.576C267.939 531.566 268.127 531.487 268.289 531.337C268.455 531.188 268.601 530.945 268.727 530.607L268.911 530.099L266.116 522.364H267.707L269.641 528.29H269.721L271.655 522.364H273.251L270.104 531.019C269.958 531.417 269.772 531.753 269.547 532.028C269.321 532.307 269.053 532.516 268.741 532.655C268.43 532.794 268.069 532.864 267.658 532.864ZM277.97 521.141V519.818H285.85V521.141H282.673V530H281.142V521.141H277.97ZM289.581 530.154C288.865 530.154 288.24 529.99 287.707 529.662C287.173 529.334 286.759 528.875 286.464 528.285C286.169 527.695 286.021 527.005 286.021 526.217C286.021 525.424 286.169 524.732 286.464 524.138C286.759 523.545 287.173 523.085 287.707 522.756C288.24 522.428 288.865 522.264 289.581 522.264C290.297 522.264 290.922 522.428 291.455 522.756C291.989 523.085 292.403 523.545 292.698 524.138C292.993 524.732 293.141 525.424 293.141 526.217C293.141 527.005 292.993 527.695 292.698 528.285C292.403 528.875 291.989 529.334 291.455 529.662C290.922 529.99 290.297 530.154 289.581 530.154ZM289.586 528.906C290.05 528.906 290.435 528.784 290.74 528.538C291.044 528.293 291.27 527.967 291.416 527.559C291.565 527.151 291.639 526.702 291.639 526.212C291.639 525.724 291.565 525.277 291.416 524.869C291.27 524.458 291.044 524.129 290.74 523.88C290.435 523.631 290.05 523.507 289.586 523.507C289.119 523.507 288.731 523.631 288.423 523.88C288.118 524.129 287.891 524.458 287.742 524.869C287.596 525.277 287.523 525.724 287.523 526.212C287.523 526.702 287.596 527.151 287.742 527.559C287.891 527.967 288.118 528.293 288.423 528.538C288.731 528.784 289.119 528.906 289.586 528.906ZM298.002 533.023C297.395 533.023 296.873 532.943 296.436 532.784C296.002 532.625 295.647 532.415 295.372 532.153C295.097 531.891 294.891 531.604 294.755 531.293L296.033 530.766C296.123 530.911 296.242 531.066 296.391 531.228C296.543 531.394 296.749 531.535 297.007 531.651C297.269 531.767 297.606 531.825 298.017 531.825C298.58 531.825 299.046 531.687 299.414 531.412C299.782 531.14 299.966 530.706 299.966 530.109V528.608H299.871C299.782 528.77 299.652 528.951 299.483 529.15C299.318 529.349 299.089 529.521 298.797 529.667C298.506 529.813 298.126 529.886 297.659 529.886C297.056 529.886 296.512 529.745 296.028 529.463C295.547 529.178 295.166 528.759 294.885 528.205C294.606 527.648 294.467 526.964 294.467 526.152C294.467 525.34 294.605 524.644 294.88 524.064C295.158 523.484 295.539 523.04 296.023 522.732C296.507 522.42 297.056 522.264 297.669 522.264C298.143 522.264 298.525 522.344 298.817 522.503C299.109 522.659 299.336 522.841 299.498 523.05C299.664 523.259 299.792 523.442 299.881 523.602H299.99V522.364H301.447V530.169C301.447 530.825 301.295 531.364 300.99 531.785C300.685 532.206 300.272 532.517 299.752 532.719C299.235 532.922 298.651 533.023 298.002 533.023ZM297.987 528.653C298.414 528.653 298.776 528.553 299.071 528.354C299.369 528.152 299.594 527.864 299.747 527.489C299.903 527.112 299.98 526.659 299.98 526.132C299.98 525.618 299.904 525.166 299.752 524.775C299.599 524.384 299.376 524.079 299.081 523.86C298.786 523.638 298.421 523.527 297.987 523.527C297.539 523.527 297.167 523.643 296.868 523.875C296.57 524.104 296.345 524.415 296.192 524.81C296.043 525.204 295.968 525.645 295.968 526.132C295.968 526.633 296.045 527.072 296.197 527.45C296.35 527.827 296.575 528.122 296.873 528.335C297.175 528.547 297.546 528.653 297.987 528.653ZM306.732 530.154C305.98 530.154 305.332 529.993 304.788 529.672C304.248 529.347 303.83 528.891 303.535 528.305C303.243 527.715 303.098 527.024 303.098 526.232C303.098 525.449 303.243 524.76 303.535 524.163C303.83 523.567 304.241 523.101 304.768 522.766C305.298 522.432 305.918 522.264 306.627 522.264C307.058 522.264 307.476 522.335 307.88 522.478C308.285 522.621 308.648 522.844 308.969 523.149C309.291 523.454 309.544 523.85 309.73 524.337C309.915 524.821 310.008 525.41 310.008 526.102V526.629H303.938V525.516H308.551C308.551 525.125 308.472 524.778 308.313 524.477C308.154 524.172 307.93 523.931 307.642 523.756C307.357 523.58 307.022 523.492 306.637 523.492C306.22 523.492 305.855 523.595 305.544 523.8C305.235 524.003 304.997 524.268 304.828 524.596C304.662 524.921 304.579 525.274 304.579 525.655V526.525C304.579 527.035 304.669 527.469 304.848 527.827C305.03 528.185 305.283 528.459 305.608 528.648C305.933 528.833 306.313 528.926 306.747 528.926C307.029 528.926 307.285 528.886 307.517 528.807C307.749 528.724 307.95 528.601 308.119 528.439C308.288 528.277 308.417 528.076 308.507 527.837L309.914 528.091C309.801 528.505 309.599 528.868 309.307 529.18C309.019 529.488 308.656 529.728 308.218 529.901C307.784 530.07 307.289 530.154 306.732 530.154ZM315.222 522.364V523.557H311.051V522.364H315.222ZM312.17 520.534H313.656V527.758C313.656 528.046 313.699 528.263 313.785 528.409C313.872 528.552 313.983 528.649 314.118 528.702C314.258 528.752 314.408 528.777 314.571 528.777C314.69 528.777 314.795 528.769 314.884 528.752C314.974 528.736 315.043 528.722 315.093 528.712L315.361 529.94C315.275 529.973 315.153 530.007 314.993 530.04C314.834 530.076 314.635 530.096 314.397 530.099C314.006 530.106 313.641 530.036 313.303 529.891C312.965 529.745 312.692 529.519 312.483 529.214C312.274 528.91 312.17 528.527 312.17 528.066V520.534ZM318.517 525.466V530H317.031V519.818H318.497V523.607H318.592C318.771 523.196 319.044 522.869 319.412 522.627C319.78 522.385 320.26 522.264 320.854 522.264C321.377 522.264 321.835 522.372 322.226 522.587C322.62 522.803 322.925 523.124 323.141 523.552C323.359 523.976 323.469 524.506 323.469 525.143V530H321.982V525.322C321.982 524.762 321.838 524.327 321.55 524.019C321.261 523.708 320.86 523.552 320.347 523.552C319.995 523.552 319.68 523.626 319.402 523.776C319.127 523.925 318.91 524.143 318.751 524.432C318.595 524.717 318.517 525.062 318.517 525.466ZM328.744 530.154C327.991 530.154 327.343 529.993 326.8 529.672C326.259 529.347 325.842 528.891 325.547 528.305C325.255 527.715 325.109 527.024 325.109 526.232C325.109 525.449 325.255 524.76 325.547 524.163C325.842 523.567 326.253 523.101 326.78 522.766C327.31 522.432 327.93 522.264 328.639 522.264C329.07 522.264 329.488 522.335 329.892 522.478C330.296 522.621 330.659 522.844 330.981 523.149C331.302 523.454 331.556 523.85 331.741 524.337C331.927 524.821 332.02 525.41 332.02 526.102V526.629H325.95V525.516H330.563C330.563 525.125 330.484 524.778 330.325 524.477C330.165 524.172 329.942 523.931 329.653 523.756C329.368 523.58 329.034 523.492 328.649 523.492C328.232 523.492 327.867 523.595 327.555 523.8C327.247 524.003 327.009 524.268 326.839 524.596C326.674 524.921 326.591 525.274 326.591 525.655V526.525C326.591 527.035 326.68 527.469 326.859 527.827C327.042 528.185 327.295 528.459 327.62 528.648C327.945 528.833 328.324 528.926 328.759 528.926C329.04 528.926 329.297 528.886 329.529 528.807C329.761 528.724 329.962 528.601 330.131 528.439C330.3 528.277 330.429 528.076 330.518 527.837L331.925 528.091C331.813 528.505 331.611 528.868 331.319 529.18C331.031 529.488 330.668 529.728 330.23 529.901C329.796 530.07 329.3 530.154 328.744 530.154ZM333.669 530V522.364H335.106V523.577H335.186C335.325 523.166 335.57 522.843 335.921 522.607C336.276 522.369 336.677 522.249 337.124 522.249C337.217 522.249 337.327 522.253 337.453 522.259C337.582 522.266 337.683 522.274 337.756 522.284V523.706C337.696 523.689 337.59 523.671 337.438 523.651C337.285 523.628 337.133 523.616 336.98 523.616C336.629 523.616 336.316 523.691 336.041 523.84C335.769 523.986 335.553 524.19 335.394 524.452C335.235 524.71 335.156 525.005 335.156 525.337V530H333.669ZM339.147 530.094C338.875 530.094 338.641 529.998 338.446 529.806C338.25 529.611 338.152 529.375 338.152 529.1C338.152 528.828 338.25 528.596 338.446 528.404C338.641 528.209 338.875 528.111 339.147 528.111C339.418 528.111 339.652 528.209 339.848 528.404C340.043 528.596 340.141 528.828 340.141 529.1C340.141 529.282 340.095 529.45 340.002 529.602C339.912 529.751 339.793 529.871 339.644 529.96C339.495 530.05 339.329 530.094 339.147 530.094Z" fill="white"/>
<defs>
<linearGradient id="paint0_linear_32_5862" x1="430" y1="498" x2="-54" y2="829" gradientUnits="userSpaceOnUse">
<stop stop-color="#1A73E8"/>
<stop offset="0.796778" stop-color="#21E2CF"/>
</linearGradient>
</defs>
</svg>
