<svg width="17" height="18" viewBox="0 0 17 18" fill="none" xmlns="http://www.w3.org/2000/svg">
<path fill-rule="evenodd" clip-rule="evenodd" d="M4.59505 4.41667C4.59505 3.44421 4.98136 2.51157 5.66899 1.82394C6.35663 1.13631 7.28926 0.75 8.26172 0.75C9.23418 0.75 10.1668 1.13631 10.8544 1.82394C11.5421 2.51157 11.9284 3.44421 11.9284 4.41667C11.9284 5.38913 11.5421 6.32176 10.8544 7.00939C10.1668 7.69703 9.23418 8.08333 8.26172 8.08333C7.28926 8.08333 6.35663 7.69703 5.66899 7.00939C4.98136 6.32176 4.59505 5.38913 4.59505 4.41667ZM4.59505 9.91667C3.37948 9.91667 2.21369 10.3996 1.35415 11.2591C0.494604 12.1186 0.0117188 13.2844 0.0117188 14.5C0.0117188 15.2293 0.30145 15.9288 0.817175 16.4445C1.3329 16.9603 2.03237 17.25 2.76172 17.25H13.7617C14.4911 17.25 15.1905 16.9603 15.7063 16.4445C16.222 15.9288 16.5117 15.2293 16.5117 14.5C16.5117 13.2844 16.0288 12.1186 15.1693 11.2591C14.3097 10.3996 13.144 9.91667 11.9284 9.91667H4.59505Z" fill="white"/>
</svg>
