<svg width="24" height="24" viewBox="0 0 24 24" fill="none" xmlns="http://www.w3.org/2000/svg">
<path fill-rule="evenodd" clip-rule="evenodd" d="M13.7889 16.5017C13.6193 16.6712 13.3894 16.7664 13.1496 16.7664C12.9098 16.7664 12.6799 16.6712 12.5103 16.5017L7.39519 11.3865C7.30883 11.3031 7.23994 11.2033 7.19255 11.093C7.14516 10.9827 7.12022 10.864 7.11917 10.744C7.11813 10.6239 7.14101 10.5049 7.18647 10.3937C7.23194 10.2826 7.29908 10.1816 7.38398 10.0967C7.46888 10.0118 7.56984 9.94471 7.68096 9.89924C7.79209 9.85378 7.91115 9.8309 8.03121 9.83194C8.15127 9.83299 8.26993 9.85793 8.38024 9.90532C8.49056 9.95271 8.59034 10.0216 8.67375 10.108L13.1496 14.5838L17.6255 10.108C17.796 9.94325 18.0244 9.85211 18.2615 9.85417C18.4986 9.85623 18.7254 9.95132 18.893 10.119C19.0607 10.2866 19.1558 10.5134 19.1578 10.7505C19.1599 10.9876 19.0688 11.216 18.904 11.3865L13.7889 16.5017Z" fill="white"/>
</svg>
