<svg width="21" height="21" viewBox="0 0 21 21" fill="none" xmlns="http://www.w3.org/2000/svg">
<g clip-path="url(#clip0_84_2676)">
<path d="M10.5996 16.9941C14.0169 16.9941 16.7871 14.2239 16.7871 10.8066C16.7871 7.38938 14.0169 4.61914 10.5996 4.61914C7.18235 4.61914 4.41211 7.38938 4.41211 10.8066C4.41211 14.2239 7.18235 16.9941 10.5996 16.9941Z" fill="black"/>
<path d="M10.5992 20.7066C8.64119 20.7066 6.72712 20.126 5.09908 19.0382C3.47103 17.9503 2.20212 16.4042 1.45282 14.5952C0.703508 12.7862 0.507455 10.7956 0.889449 8.87523C1.27144 6.95481 2.21433 5.1908 3.59887 3.80626C4.9834 2.42172 6.74742 1.47884 8.66783 1.09685C10.5882 0.714853 12.5788 0.910906 14.3878 1.66021C16.1968 2.40952 17.7429 3.67843 18.8308 5.30647C19.9186 6.93452 20.4992 8.84858 20.4992 10.8066C20.4962 13.4313 19.4522 15.9477 17.5963 17.8037C15.7403 19.6596 13.2239 20.7036 10.5992 20.7066ZM10.5992 2.32091C8.92091 2.32091 7.28028 2.81858 5.88481 3.75101C4.48934 4.68343 3.40171 6.00872 2.75944 7.55928C2.11718 9.10984 1.94914 10.816 2.27656 12.4621C2.60398 14.1082 3.41217 15.6202 4.59892 16.8069C5.78566 17.9937 7.29767 18.8019 8.94374 19.1293C10.5898 19.4567 12.296 19.2887 13.8466 18.6464C15.3971 18.0041 16.7224 16.9165 17.6548 15.521C18.5873 14.1256 19.0849 12.4849 19.0849 10.8066C19.0823 8.55687 18.1874 6.40002 16.5966 4.80921C15.0058 3.2184 12.849 2.32353 10.5992 2.32091Z" fill="#828282"/>
</g>
<defs>
<clipPath id="clip0_84_2676">
<rect width="19.8" height="19.8" fill="white" transform="translate(0.699219 0.90625)"/>
</clipPath>
</defs>
</svg>
