<svg width="93" height="50" viewBox="0 0 93 50" fill="none" xmlns="http://www.w3.org/2000/svg">
<path d="M49.8435 20.141V40.187H45.6737V20.141H49.8435ZM61.1805 25.1525V28.2847H52.1265V25.1525H61.1805ZM54.182 21.5505H58.3518V35.567C58.3518 35.952 58.4105 36.2522 58.528 36.4675C58.6454 36.6763 58.8086 36.8232 59.0174 36.908C59.2327 36.9928 59.4807 37.0352 59.7613 37.0352C59.957 37.0352 60.1528 37.0189 60.3486 36.9863C60.5443 36.9472 60.6944 36.9178 60.7988 36.8982L61.4546 40.001C61.2458 40.0663 60.9522 40.1413 60.5737 40.2262C60.1952 40.3175 59.7352 40.373 59.1936 40.3926C58.1886 40.4317 57.3077 40.2979 56.5508 39.9912C55.8003 39.6846 55.2163 39.2082 54.7987 38.5622C54.3811 37.9162 54.1755 37.1005 54.182 36.1152V21.5505ZM68.1839 40.4709C67.2247 40.4709 66.3699 40.3045 65.6194 39.9717C64.869 39.6324 64.2752 39.1332 63.838 38.4741C63.4073 37.8085 63.192 36.9798 63.192 35.9879C63.192 35.1527 63.3453 34.4512 63.652 33.8835C63.9587 33.3158 64.3764 32.859 64.9049 32.5131C65.4335 32.1673 66.0338 31.9063 66.7059 31.7301C67.3846 31.5539 68.0958 31.4299 68.8397 31.3581C69.7141 31.2668 70.4189 31.182 70.954 31.1037C71.489 31.0188 71.8773 30.8948 72.1187 30.7317C72.3602 30.5686 72.4809 30.3271 72.4809 30.0074V29.9487C72.4809 29.3287 72.2851 28.8491 71.8936 28.5098C71.5086 28.1705 70.9605 28.0008 70.2492 28.0008C69.4988 28.0008 68.9017 28.1672 68.458 28.5C68.0143 28.8263 67.7206 29.2374 67.5771 29.7333L63.7206 29.4201C63.9163 28.5065 64.3013 27.717 64.8755 27.0514C65.4498 26.3793 66.1904 25.8638 67.0974 25.5049C68.011 25.1394 69.0681 24.9567 70.2688 24.9567C71.104 24.9567 71.9034 25.0546 72.6669 25.2504C73.4369 25.4461 74.1188 25.7496 74.7126 26.1607C75.3129 26.5718 75.786 27.1003 76.1319 27.7463C76.4777 28.3858 76.6506 29.1526 76.6506 30.0465V40.187H72.6962V38.1021H72.5788C72.3373 38.572 72.0143 38.9863 71.6098 39.3452C71.2052 39.6976 70.719 39.9749 70.1513 40.1772C69.5836 40.373 68.9278 40.4709 68.1839 40.4709ZM69.3781 37.5932C69.9915 37.5932 70.5331 37.4724 71.0029 37.231C71.4727 36.983 71.8414 36.6502 72.109 36.2326C72.3765 35.815 72.5103 35.3419 72.5103 34.8133V33.2179C72.3798 33.3027 72.2003 33.381 71.9719 33.4528C71.7501 33.5181 71.4988 33.58 71.2182 33.6388C70.9376 33.691 70.6571 33.7399 70.3765 33.7856C70.0959 33.8247 69.8414 33.8606 69.613 33.8933C69.1236 33.965 68.6962 34.0792 68.3307 34.2358C67.9653 34.3925 67.6815 34.6045 67.4792 34.8721C67.2769 35.1331 67.1757 35.4594 67.1757 35.8509C67.1757 36.4186 67.3813 36.8525 67.7924 37.1527C68.21 37.4463 68.7386 37.5932 69.3781 37.5932ZM82.3228 40.4415C81.6768 40.4415 81.1222 40.2131 80.6589 39.7563C80.2021 39.293 79.9737 38.7384 79.9737 38.0924C79.9737 37.4529 80.2021 36.9047 80.6589 36.448C81.1222 35.9912 81.6768 35.7628 82.3228 35.7628C82.9493 35.7628 83.4974 35.9912 83.9672 36.448C84.4371 36.9047 84.672 37.4529 84.672 38.0924C84.672 38.523 84.561 38.9178 84.3392 39.2767C84.1238 39.6291 83.84 39.9129 83.4876 40.1283C83.1352 40.3371 82.747 40.4415 82.3228 40.4415Z" fill="white"/>
<rect x="8.00391" y="21.5938" width="28.9883" height="5.51266" transform="rotate(23.2319 8.00391 21.5938)" fill="white"/>
<rect x="30.0918" y="37.0491" width="28.9888" height="5.51266" transform="rotate(-66.7681 30.0918 37.0491)" fill="white"/>
<circle cx="25.8843" cy="16.0554" r="5.58156" fill="white"/>
<path d="M0.407963 48.0352V44.3218H1.73158C2.01927 44.3218 2.258 44.3713 2.44778 44.4705C2.63876 44.5696 2.7814 44.7068 2.87569 44.8821C2.96997 45.0561 3.01711 45.2574 3.01711 45.4858C3.01711 45.7131 2.96937 45.9131 2.87387 46.086C2.77959 46.2576 2.63695 46.3912 2.44596 46.4867C2.25619 46.5822 2.01745 46.63 1.72976 46.63H0.727081V46.1476H1.67899C1.86031 46.1476 2.00778 46.1217 2.12141 46.0697C2.23624 46.0177 2.32025 45.9422 2.37344 45.843C2.42662 45.7439 2.45322 45.6249 2.45322 45.4858C2.45322 45.3456 2.42602 45.2241 2.37162 45.1214C2.31844 45.0186 2.23443 44.9401 2.11959 44.8857C2.00597 44.8301 1.85668 44.8023 1.67174 44.8023H0.968232V48.0352H0.407963ZM2.24108 46.3598L3.15854 48.0352H2.5203L1.62097 46.3598H2.24108ZM4.82076 48.0914C4.54637 48.0914 4.31005 48.0327 4.11181 47.9155C3.91478 47.797 3.76248 47.6308 3.65489 47.4169C3.54852 47.2017 3.49534 46.9497 3.49534 46.6608C3.49534 46.3755 3.54852 46.1241 3.65489 45.9065C3.76248 45.6889 3.91236 45.5191 4.10456 45.397C4.29796 45.2749 4.52401 45.2139 4.78269 45.2139C4.93983 45.2139 5.09213 45.2399 5.2396 45.2918C5.38707 45.3438 5.51944 45.4254 5.63669 45.5366C5.75394 45.6478 5.84641 45.7923 5.9141 45.97C5.98179 46.1464 6.01564 46.361 6.01564 46.6136V46.8058H3.80176V46.3997H5.48438C5.48438 46.257 5.45537 46.1307 5.39735 46.0207C5.33933 45.9095 5.25774 45.8219 5.15257 45.7578C5.04862 45.6938 4.92653 45.6617 4.78631 45.6617C4.63401 45.6617 4.50104 45.6992 4.38741 45.7741C4.275 45.8479 4.18797 45.9446 4.12632 46.0642C4.06588 46.1827 4.03566 46.3114 4.03566 46.4504V46.7678C4.03566 46.9539 4.0683 47.1123 4.13357 47.2428C4.20005 47.3733 4.29253 47.4731 4.41099 47.542C4.52945 47.6097 4.66785 47.6435 4.8262 47.6435C4.92895 47.6435 5.02263 47.629 5.10724 47.6C5.19186 47.5698 5.26499 47.5251 5.32664 47.4658C5.38828 47.4066 5.43543 47.3335 5.46806 47.2464L5.98119 47.3389C5.94009 47.49 5.86636 47.6224 5.75998 47.736C5.65482 47.8484 5.52246 47.936 5.3629 47.9989C5.20455 48.0605 5.02384 48.0914 4.82076 48.0914ZM7.79028 48.0914C7.52072 48.0914 7.28864 48.0303 7.09402 47.9082C6.90062 47.7849 6.75194 47.6151 6.64798 47.3987C6.54403 47.1824 6.49205 46.9346 6.49205 46.6553C6.49205 46.3725 6.54524 46.1229 6.65161 45.9065C6.75798 45.6889 6.90787 45.5191 7.10127 45.397C7.29468 45.2749 7.52253 45.2139 7.78484 45.2139C7.99638 45.2139 8.18495 45.2532 8.35055 45.3317C8.51615 45.4091 8.64972 45.5179 8.75126 45.6581C8.854 45.7983 8.91505 45.9621 8.93439 46.1495H8.40676C8.37775 46.0189 8.31126 45.9065 8.20731 45.8122C8.10456 45.7179 7.96676 45.6708 7.79391 45.6708C7.64281 45.6708 7.51045 45.7107 7.39682 45.7905C7.2844 45.869 7.19677 45.9814 7.13391 46.1277C7.07106 46.2728 7.03963 46.4444 7.03963 46.6426C7.03963 46.8457 7.07045 47.021 7.1321 47.1685C7.19375 47.3159 7.28078 47.4302 7.39319 47.5112C7.50682 47.5921 7.64039 47.6326 7.79391 47.6326C7.89665 47.6326 7.98973 47.6139 8.07313 47.5764C8.15775 47.5377 8.22846 47.4827 8.28527 47.4114C8.3433 47.3401 8.38379 47.2543 8.40676 47.154H8.93439C8.91505 47.3341 8.85642 47.4948 8.75851 47.6363C8.6606 47.7777 8.52945 47.8889 8.36505 47.9699C8.20187 48.0509 8.01028 48.0914 7.79028 48.0914ZM10.6873 48.0914C10.4262 48.0914 10.1983 48.0315 10.0037 47.9119C9.80909 47.7922 9.65799 47.6248 9.55041 47.4096C9.44283 47.1945 9.38904 46.943 9.38904 46.6553C9.38904 46.3664 9.44283 46.1138 9.55041 45.8974C9.65799 45.6811 9.80909 45.513 10.0037 45.3934C10.1983 45.2737 10.4262 45.2139 10.6873 45.2139C10.9484 45.2139 11.1762 45.2737 11.3708 45.3934C11.5654 45.513 11.7165 45.6811 11.8241 45.8974C11.9317 46.1138 11.9855 46.3664 11.9855 46.6553C11.9855 46.943 11.9317 47.1945 11.8241 47.4096C11.7165 47.6248 11.5654 47.7922 11.3708 47.9119C11.1762 48.0315 10.9484 48.0914 10.6873 48.0914ZM10.6891 47.6363C10.8583 47.6363 10.9985 47.5915 11.1097 47.5021C11.2209 47.4126 11.3031 47.2936 11.3563 47.1449C11.4107 46.9962 11.4379 46.8324 11.4379 46.6535C11.4379 46.4758 11.4107 46.3126 11.3563 46.164C11.3031 46.0141 11.2209 45.8938 11.1097 45.8031C10.9985 45.7125 10.8583 45.6672 10.6891 45.6672C10.5186 45.6672 10.3772 45.7125 10.2648 45.8031C10.1536 45.8938 10.0708 46.0141 10.0164 46.164C9.96321 46.3126 9.93662 46.4758 9.93662 46.6535C9.93662 46.8324 9.96321 46.9962 10.0164 47.1449C10.0708 47.2936 10.1536 47.4126 10.2648 47.5021C10.3772 47.5915 10.5186 47.6363 10.6891 47.6363ZM12.5906 48.0352V45.2501H13.1146V45.6925H13.1437C13.1944 45.5427 13.2839 45.4248 13.412 45.339C13.5413 45.2519 13.6876 45.2084 13.8508 45.2084C13.8846 45.2084 13.9245 45.2096 13.9705 45.2121C14.0176 45.2145 14.0545 45.2175 14.0811 45.2211V45.7397C14.0593 45.7336 14.0206 45.727 13.965 45.7197C13.9094 45.7113 13.8538 45.707 13.7982 45.707C13.6701 45.707 13.5559 45.7342 13.4555 45.7886C13.3564 45.8418 13.2778 45.9162 13.2198 46.0117C13.1618 46.1059 13.1328 46.2135 13.1328 46.3344V48.0352H12.5906ZM15.4931 48.0896C15.2682 48.0896 15.0676 48.0321 14.8911 47.9173C14.7158 47.8013 14.578 47.6363 14.4777 47.4223C14.3786 47.2071 14.329 46.9491 14.329 46.6481C14.329 46.3471 14.3792 46.0896 14.4795 45.8757C14.581 45.6617 14.7201 45.4979 14.8965 45.3843C15.073 45.2707 15.2731 45.2139 15.4967 45.2139C15.6696 45.2139 15.8086 45.2429 15.9137 45.3009C16.0201 45.3577 16.1023 45.4242 16.1603 45.5003C16.2195 45.5765 16.2655 45.6436 16.2981 45.7016H16.3308V44.3218H16.8729V48.0352H16.3434V47.6018H16.2981C16.2655 47.661 16.2183 47.7287 16.1567 47.8049C16.0963 47.881 16.0128 47.9475 15.9065 48.0043C15.8001 48.0611 15.6623 48.0896 15.4931 48.0896ZM15.6127 47.6272C15.7687 47.6272 15.9004 47.5861 16.008 47.5039C16.1168 47.4205 16.199 47.3051 16.2546 47.1576C16.3114 47.0101 16.3398 46.8385 16.3398 46.6426C16.3398 46.4492 16.312 46.28 16.2564 46.135C16.2008 45.9899 16.1192 45.8769 16.0116 45.7959C15.9041 45.7149 15.7711 45.6744 15.6127 45.6744C15.4496 45.6744 15.3136 45.7167 15.2048 45.8013C15.096 45.8859 15.0138 46.0014 14.9582 46.1476C14.9038 46.2939 14.8766 46.4589 14.8766 46.6426C14.8766 46.8288 14.9044 46.9962 14.96 47.1449C15.0156 47.2936 15.0978 47.4114 15.2066 47.4985C15.3166 47.5843 15.452 47.6272 15.6127 47.6272ZM18.352 47.5275L18.3248 47.7251C18.3067 47.8702 18.2758 48.0213 18.2323 48.1784C18.19 48.3367 18.1459 48.4836 18.1 48.619C18.0552 48.7544 18.0184 48.862 17.9894 48.9417H17.605C17.6207 48.8668 17.6424 48.7653 17.6702 48.6371C17.698 48.5102 17.7252 48.3682 17.7518 48.211C17.7784 48.0539 17.7984 47.8937 17.8117 47.7305L17.8298 47.5275H18.352ZM20.4525 48.0352V44.3218H21.7762C22.0651 44.3218 22.3044 44.3744 22.4942 44.4795C22.6839 44.5847 22.826 44.7285 22.9203 44.9111C23.0145 45.0924 23.0617 45.2967 23.0617 45.5239C23.0617 45.7524 23.0139 45.9579 22.9185 46.1404C22.8242 46.3217 22.6815 46.4656 22.4905 46.5719C22.3008 46.6771 22.062 46.7297 21.7743 46.7297H20.8641V46.2546H21.7236C21.9061 46.2546 22.0542 46.2232 22.1678 46.1603C22.2814 46.0963 22.3648 46.0092 22.418 45.8992C22.4712 45.7892 22.4978 45.6641 22.4978 45.5239C22.4978 45.3837 22.4712 45.2592 22.418 45.1504C22.3648 45.0416 22.2808 44.9564 22.166 44.8947C22.0524 44.8331 21.9025 44.8023 21.7163 44.8023H21.0128V48.0352H20.4525ZM23.675 48.0352V45.2501H24.199V45.6925H24.228C24.2788 45.5427 24.3682 45.4248 24.4964 45.339C24.6257 45.2519 24.772 45.2084 24.9351 45.2084C24.969 45.2084 25.0089 45.2096 25.0548 45.2121C25.102 45.2145 25.1388 45.2175 25.1654 45.2211V45.7397C25.1437 45.7336 25.105 45.727 25.0494 45.7197C24.9938 45.7113 24.9382 45.707 24.8826 45.707C24.7544 45.707 24.6402 45.7342 24.5399 45.7886C24.4408 45.8418 24.3622 45.9162 24.3042 46.0117C24.2461 46.1059 24.2171 46.2135 24.2171 46.3344V48.0352H23.675ZM26.7352 48.0914C26.4608 48.0914 26.2245 48.0327 26.0262 47.9155C25.8292 47.797 25.6769 47.6308 25.5693 47.4169C25.4629 47.2017 25.4097 46.9497 25.4097 46.6608C25.4097 46.3755 25.4629 46.1241 25.5693 45.9065C25.6769 45.6889 25.8268 45.5191 26.019 45.397C26.2124 45.2749 26.4384 45.2139 26.6971 45.2139C26.8542 45.2139 27.0065 45.2399 27.154 45.2918C27.3015 45.3438 27.4338 45.4254 27.5511 45.5366C27.6683 45.6478 27.7608 45.7923 27.8285 45.97C27.8962 46.1464 27.93 46.361 27.93 46.6136V46.8058H25.7162V46.3997H27.3988C27.3988 46.257 27.3698 46.1307 27.3118 46.0207C27.2537 45.9095 27.1721 45.8219 27.067 45.7578C26.963 45.6938 26.8409 45.6617 26.7007 45.6617C26.5484 45.6617 26.4154 45.6992 26.3018 45.7741C26.1894 45.8479 26.1024 45.9446 26.0407 46.0642C25.9803 46.1827 25.9501 46.3114 25.9501 46.4504V46.7678C25.9501 46.9539 25.9827 47.1123 26.048 47.2428C26.1145 47.3733 26.2069 47.4731 26.3254 47.542C26.4439 47.6097 26.5823 47.6435 26.7406 47.6435C26.8434 47.6435 26.937 47.629 27.0217 47.6C27.1063 47.5698 27.1794 47.5251 27.241 47.4658C27.3027 47.4066 27.3498 47.3335 27.3825 47.2464L27.8956 47.3389C27.8545 47.49 27.7808 47.6224 27.6744 47.736C27.5692 47.8484 27.4369 47.936 27.2773 47.9989C27.119 48.0605 26.9382 48.0914 26.7352 48.0914ZM30.8343 45.2501L29.8244 48.0352H29.2441L28.2324 45.2501H28.8144L29.5197 47.3933H29.5488L30.2523 45.2501H30.8343ZM32.4494 48.0914C32.175 48.0914 31.9387 48.0327 31.7404 47.9155C31.5434 47.797 31.3911 47.6308 31.2835 47.4169C31.1771 47.2017 31.1239 46.9497 31.1239 46.6608C31.1239 46.3755 31.1771 46.1241 31.2835 45.9065C31.3911 45.6889 31.541 45.5191 31.7332 45.397C31.9266 45.2749 32.1526 45.2139 32.4113 45.2139C32.5684 45.2139 32.7207 45.2399 32.8682 45.2918C33.0157 45.3438 33.148 45.4254 33.2653 45.5366C33.3825 45.6478 33.475 45.7923 33.5427 45.97C33.6104 46.1464 33.6443 46.361 33.6443 46.6136V46.8058H31.4304V46.3997H33.113C33.113 46.257 33.084 46.1307 33.026 46.0207C32.9679 45.9095 32.8863 45.8219 32.7812 45.7578C32.6772 45.6938 32.5551 45.6617 32.4149 45.6617C32.2626 45.6617 32.1296 45.6992 32.016 45.7741C31.9036 45.8479 31.8166 45.9446 31.7549 46.0642C31.6945 46.1827 31.6643 46.3114 31.6643 46.4504V46.7678C31.6643 46.9539 31.6969 47.1123 31.7622 47.2428C31.8287 47.3733 31.9211 47.4731 32.0396 47.542C32.1581 47.6097 32.2965 47.6435 32.4548 47.6435C32.5576 47.6435 32.6512 47.629 32.7359 47.6C32.8205 47.5698 32.8936 47.5251 32.9552 47.4658C33.0169 47.4066 33.064 47.3335 33.0967 47.2464L33.6098 47.3389C33.5687 47.49 33.495 47.6224 33.3886 47.736C33.2834 47.8484 33.1511 47.936 32.9915 47.9989C32.8332 48.0605 32.6524 48.0914 32.4494 48.0914ZM34.7879 46.3815V48.0352H34.2458V45.2501H34.7661V45.7034H34.8006C34.8647 45.556 34.965 45.4375 35.1016 45.348C35.2394 45.2586 35.4128 45.2139 35.622 45.2139C35.8117 45.2139 35.9779 45.2538 36.1206 45.3335C36.2632 45.4121 36.3738 45.5294 36.4524 45.6853C36.531 45.8412 36.5703 46.034 36.5703 46.2637V48.0352H36.0281V46.329C36.0281 46.1271 35.9755 45.9694 35.8704 45.8557C35.7652 45.7409 35.6208 45.6835 35.437 45.6835C35.3113 45.6835 35.1995 45.7107 35.1016 45.7651C35.0049 45.8195 34.9281 45.8992 34.8713 46.0044C34.8157 46.1084 34.7879 46.2341 34.7879 46.3815ZM38.5974 45.2501V45.6853H37.0761V45.2501H38.5974ZM37.4841 44.5829H38.0262V47.2174C38.0262 47.3226 38.0419 47.4018 38.0734 47.4549C38.1048 47.5069 38.1453 47.5426 38.1948 47.5619C38.2456 47.5801 38.3006 47.5891 38.3598 47.5891C38.4034 47.5891 38.4414 47.5861 38.4741 47.5801C38.5067 47.574 38.5321 47.5692 38.5502 47.5655L38.6481 48.0134C38.6167 48.0255 38.572 48.0376 38.514 48.0497C38.4559 48.063 38.3834 48.0702 38.2964 48.0714C38.1538 48.0738 38.0208 48.0485 37.8975 47.9953C37.7742 47.9421 37.6745 47.8599 37.5983 47.7487C37.5222 47.6375 37.4841 47.4979 37.4841 47.3298V44.5829ZM39.9024 47.5275L39.8752 47.7251C39.8571 47.8702 39.8262 48.0213 39.7827 48.1784C39.7404 48.3367 39.6963 48.4836 39.6504 48.619C39.6056 48.7544 39.5688 48.862 39.5398 48.9417H39.1554C39.1711 48.8668 39.1928 48.7653 39.2206 48.6371C39.2485 48.5102 39.2756 48.3682 39.3022 48.211C39.3288 48.0539 39.3488 47.8937 39.3621 47.7305L39.3802 47.5275H39.9024ZM42.003 48.0352V44.3218H43.3628C43.6263 44.3218 43.8445 44.3653 44.0174 44.4523C44.1902 44.5382 44.3196 44.6548 44.4054 44.8023C44.4912 44.9485 44.5341 45.1135 44.5341 45.2973C44.5341 45.452 44.5057 45.5825 44.4489 45.6889C44.3921 45.7941 44.316 45.8787 44.2205 45.9428C44.1262 46.0056 44.0222 46.0515 43.9086 46.0806V46.1168C44.0319 46.1229 44.1522 46.1628 44.2694 46.2365C44.3879 46.309 44.4858 46.4124 44.5632 46.5465C44.6405 46.6807 44.6792 46.8439 44.6792 47.0361C44.6792 47.2259 44.6345 47.3963 44.545 47.5474C44.4568 47.6973 44.3202 47.8164 44.1352 47.9046C43.9503 47.9916 43.714 48.0352 43.4263 48.0352H42.003ZM42.5632 47.5547H43.3719C43.6402 47.5547 43.8324 47.5027 43.9485 47.3987C44.0645 47.2948 44.1226 47.1648 44.1226 47.0089C44.1226 46.8917 44.0929 46.7841 44.0337 46.6862C43.9745 46.5882 43.8899 46.5103 43.7799 46.4523C43.6711 46.3942 43.5417 46.3652 43.3918 46.3652H42.5632V47.5547ZM42.5632 45.9283H43.3139C43.4396 45.9283 43.5526 45.9041 43.6529 45.8557C43.7545 45.8074 43.8349 45.7397 43.8941 45.6527C43.9545 45.5644 43.9847 45.4605 43.9847 45.3408C43.9847 45.1873 43.931 45.0585 43.8234 44.9546C43.7158 44.8506 43.5508 44.7987 43.3284 44.7987H42.5632V45.9283ZM46.5005 48.0914C46.2261 48.0914 45.9898 48.0327 45.7916 47.9155C45.5945 47.797 45.4422 47.6308 45.3347 47.4169C45.2283 47.2017 45.1751 46.9497 45.1751 46.6608C45.1751 46.3755 45.2283 46.1241 45.3347 45.9065C45.4422 45.6889 45.5921 45.5191 45.7843 45.397C45.9777 45.2749 46.2038 45.2139 46.4624 45.2139C46.6196 45.2139 46.7719 45.2399 46.9194 45.2918C47.0668 45.3438 47.1992 45.4254 47.3164 45.5366C47.4337 45.6478 47.5262 45.7923 47.5939 45.97C47.6616 46.1464 47.6954 46.361 47.6954 46.6136V46.8058H45.4815V46.3997H47.1641C47.1641 46.257 47.1351 46.1307 47.0771 46.0207C47.0191 45.9095 46.9375 45.8219 46.8323 45.7578C46.7284 45.6938 46.6063 45.6617 46.4661 45.6617C46.3138 45.6617 46.1808 45.6992 46.0672 45.7741C45.9548 45.8479 45.8677 45.9446 45.8061 46.0642C45.7456 46.1827 45.7154 46.3114 45.7154 46.4504V46.7678C45.7154 46.9539 45.7481 47.1123 45.8133 47.2428C45.8798 47.3733 45.9723 47.4731 46.0907 47.542C46.2092 47.6097 46.3476 47.6435 46.506 47.6435C46.6087 47.6435 46.7024 47.629 46.787 47.6C46.8716 47.5698 46.9447 47.5251 47.0064 47.4658C47.068 47.4066 47.1152 47.3335 47.1478 47.2464L47.6609 47.3389C47.6199 47.49 47.5461 47.6224 47.4397 47.736C47.3346 47.8484 47.2022 47.936 47.0427 47.9989C46.8843 48.0605 46.7036 48.0914 46.5005 48.0914ZM49.6917 48.0352V44.3218H50.252V45.9355H52.1032V44.3218H52.6653V48.0352H52.1032V46.416H50.252V48.0352H49.6917ZM54.638 48.0914C54.3636 48.0914 54.1273 48.0327 53.9291 47.9155C53.732 47.797 53.5797 47.6308 53.4722 47.4169C53.3658 47.2017 53.3126 46.9497 53.3126 46.6608C53.3126 46.3755 53.3658 46.1241 53.4722 45.9065C53.5797 45.6889 53.7296 45.5191 53.9218 45.397C54.1152 45.2749 54.3413 45.2139 54.5999 45.2139C54.7571 45.2139 54.9094 45.2399 55.0569 45.2918C55.2043 45.3438 55.3367 45.4254 55.4539 45.5366C55.5712 45.6478 55.6637 45.7923 55.7314 45.97C55.7991 46.1464 55.8329 46.361 55.8329 46.6136V46.8058H53.619V46.3997H55.3016C55.3016 46.257 55.2726 46.1307 55.2146 46.0207C55.1566 45.9095 55.075 45.8219 54.9698 45.7578C54.8659 45.6938 54.7438 45.6617 54.6036 45.6617C54.4513 45.6617 54.3183 45.6992 54.2047 45.7741C54.0923 45.8479 54.0052 45.9446 53.9436 46.0642C53.8831 46.1827 53.8529 46.3114 53.8529 46.4504V46.7678C53.8529 46.9539 53.8856 47.1123 53.9508 47.2428C54.0173 47.3733 54.1098 47.4731 54.2282 47.542C54.3467 47.6097 54.4851 47.6435 54.6435 47.6435C54.7462 47.6435 54.8399 47.629 54.9245 47.6C55.0091 47.5698 55.0822 47.5251 55.1439 47.4658C55.2055 47.4066 55.2527 47.3335 55.2853 47.2464L55.7984 47.3389C55.7574 47.49 55.6836 47.6224 55.5772 47.736C55.4721 47.8484 55.3397 47.936 55.1802 47.9989C55.0218 48.0605 54.8411 48.0914 54.638 48.0914ZM57.2449 48.0968C57.0684 48.0968 56.9089 48.0642 56.7662 47.9989C56.6236 47.9324 56.5106 47.8363 56.4272 47.7106C56.345 47.5849 56.3039 47.4308 56.3039 47.2482C56.3039 47.0911 56.3341 46.9618 56.3945 46.8602C56.455 46.7587 56.5366 46.6783 56.6393 46.6191C56.7421 46.5598 56.8569 46.5151 56.9838 46.4849C57.1107 46.4547 57.2401 46.4317 57.3718 46.416C57.5386 46.3967 57.674 46.3809 57.778 46.3689C57.8819 46.3556 57.9575 46.3344 58.0046 46.3054C58.0518 46.2764 58.0753 46.2292 58.0753 46.164V46.1513C58.0753 45.9929 58.0306 45.8702 57.9412 45.7832C57.8529 45.6962 57.7212 45.6527 57.5459 45.6527C57.3634 45.6527 57.2195 45.6931 57.1144 45.7741C57.0104 45.8539 56.9385 45.9428 56.8986 46.0407L56.3891 45.9246C56.4495 45.7554 56.5378 45.6188 56.6538 45.5149C56.7711 45.4097 56.9058 45.3335 57.0581 45.2864C57.2105 45.238 57.3706 45.2139 57.5386 45.2139C57.6498 45.2139 57.7677 45.2272 57.8922 45.2538C58.0179 45.2791 58.1352 45.3263 58.244 45.3952C58.354 45.4641 58.444 45.5626 58.5141 45.6907C58.5842 45.8177 58.6193 45.9826 58.6193 46.1857V48.0352H58.0898V47.6544H58.0681C58.033 47.7245 57.9804 47.7934 57.9103 47.8611C57.8402 47.9288 57.7502 47.985 57.6402 48.0297C57.5302 48.0744 57.3984 48.0968 57.2449 48.0968ZM57.3628 47.6616C57.5127 47.6616 57.6408 47.632 57.7472 47.5728C57.8547 47.5136 57.9363 47.4362 57.9919 47.3407C58.0487 47.244 58.0772 47.1407 58.0772 47.0307V46.6717C58.0578 46.691 58.0203 46.7091 57.9647 46.726C57.9103 46.7418 57.8481 46.7557 57.778 46.7678C57.7079 46.7786 57.6396 46.7889 57.5731 46.7986C57.5066 46.807 57.451 46.8143 57.4063 46.8203C57.3011 46.8336 57.205 46.856 57.118 46.8874C57.0322 46.9188 56.9633 46.9642 56.9113 47.0234C56.8605 47.0814 56.8351 47.1588 56.8351 47.2555C56.8351 47.3897 56.8847 47.4912 56.9838 47.5601C57.0829 47.6278 57.2092 47.6616 57.3628 47.6616ZM59.8835 44.3218V48.0352H59.3414V44.3218H59.8835ZM61.9129 45.2501V45.6853H60.3917V45.2501H61.9129ZM60.7996 44.5829H61.3418V47.2174C61.3418 47.3226 61.3575 47.4018 61.3889 47.4549C61.4203 47.5069 61.4608 47.5426 61.5104 47.5619C61.5612 47.5801 61.6162 47.5891 61.6754 47.5891C61.7189 47.5891 61.757 47.5861 61.7896 47.5801C61.8222 47.574 61.8476 47.5692 61.8658 47.5655L61.9637 48.0134C61.9322 48.0255 61.8875 48.0376 61.8295 48.0497C61.7715 48.063 61.699 48.0702 61.6119 48.0714C61.4693 48.0738 61.3363 48.0485 61.213 47.9953C61.0897 47.9421 60.99 47.8599 60.9138 47.7487C60.8377 47.6375 60.7996 47.4979 60.7996 47.3298V44.5829ZM63.1146 46.3815V48.0352H62.5724V44.3218H63.1073V45.7034H63.1418C63.2071 45.5535 63.3068 45.4345 63.441 45.3462C63.5751 45.258 63.7504 45.2139 63.9668 45.2139C64.1578 45.2139 64.3246 45.2532 64.4672 45.3317C64.6111 45.4103 64.7223 45.5275 64.8008 45.6835C64.8806 45.8382 64.9205 46.0316 64.9205 46.2637V48.0352H64.3784V46.329C64.3784 46.1247 64.3258 45.9663 64.2206 45.8539C64.1155 45.7403 63.9692 45.6835 63.7818 45.6835C63.6537 45.6835 63.5389 45.7107 63.4373 45.7651C63.337 45.8195 63.2578 45.8992 63.1998 46.0044C63.143 46.1084 63.1146 46.2341 63.1146 46.3815ZM65.8869 49.0795C65.8059 49.0795 65.7322 49.0729 65.6657 49.0596C65.5992 49.0475 65.5497 49.0342 65.517 49.0197L65.6476 48.5755C65.7467 48.6021 65.8349 48.6136 65.9123 48.6099C65.9897 48.6063 66.058 48.5773 66.1172 48.5229C66.1776 48.4685 66.2308 48.3797 66.2768 48.2564L66.3438 48.0714L65.3248 45.2501H65.9051L66.6104 47.4114H66.6394L67.3447 45.2501H67.9267L66.779 48.4069C66.7258 48.5519 66.6581 48.6746 66.5759 48.7749C66.4937 48.8765 66.3958 48.9526 66.2822 49.0034C66.1686 49.0542 66.0368 49.0795 65.8869 49.0795ZM69.6479 44.8041V44.3218H72.5218V44.8041H71.3631V48.0352H70.8047V44.8041H69.6479ZM73.8825 48.0914C73.6214 48.0914 73.3936 48.0315 73.199 47.9119C73.0044 47.7922 72.8533 47.6248 72.7457 47.4096C72.6381 47.1945 72.5843 46.943 72.5843 46.6553C72.5843 46.3664 72.6381 46.1138 72.7457 45.8974C72.8533 45.6811 73.0044 45.513 73.199 45.3934C73.3936 45.2737 73.6214 45.2139 73.8825 45.2139C74.1436 45.2139 74.3715 45.2737 74.5661 45.3934C74.7607 45.513 74.9118 45.6811 75.0194 45.8974C75.127 46.1138 75.1808 46.3664 75.1808 46.6553C75.1808 46.943 75.127 47.1945 75.0194 47.4096C74.9118 47.6248 74.7607 47.7922 74.5661 47.9119C74.3715 48.0315 74.1436 48.0914 73.8825 48.0914ZM73.8844 47.6363C74.0536 47.6363 74.1938 47.5915 74.305 47.5021C74.4162 47.4126 74.4984 47.2936 74.5516 47.1449C74.606 46.9962 74.6332 46.8324 74.6332 46.6535C74.6332 46.4758 74.606 46.3126 74.5516 46.164C74.4984 46.0141 74.4162 45.8938 74.305 45.8031C74.1938 45.7125 74.0536 45.6672 73.8844 45.6672C73.7139 45.6672 73.5725 45.7125 73.4601 45.8031C73.3489 45.8938 73.2661 46.0141 73.2117 46.164C73.1585 46.3126 73.1319 46.4758 73.1319 46.6535C73.1319 46.8324 73.1585 46.9962 73.2117 47.1449C73.2661 47.2936 73.3489 47.4126 73.4601 47.5021C73.5725 47.5915 73.7139 47.6363 73.8844 47.6363ZM76.9536 49.1376C76.7324 49.1376 76.542 49.1086 76.3824 49.0505C76.2241 48.9925 76.0948 48.9158 75.9944 48.8203C75.8941 48.7248 75.8192 48.6202 75.7696 48.5066L76.2356 48.3144C76.2682 48.3676 76.3117 48.4238 76.3661 48.483C76.4217 48.5434 76.4967 48.5948 76.591 48.6371C76.6865 48.6794 76.8091 48.7006 76.959 48.7006C77.1645 48.7006 77.3344 48.6504 77.4685 48.5501C77.6027 48.451 77.6698 48.2926 77.6698 48.075V47.5275H77.6353C77.6027 47.5867 77.5556 47.6526 77.4939 47.7251C77.4335 47.7976 77.3501 47.8605 77.2437 47.9137C77.1373 47.9669 76.9989 47.9935 76.8285 47.9935C76.6085 47.9935 76.4102 47.9421 76.2338 47.8393C76.0585 47.7354 75.9195 47.5825 75.8167 47.3806C75.7152 47.1775 75.6644 46.9279 75.6644 46.6318C75.6644 46.3356 75.7146 46.0818 75.8149 45.8702C75.9165 45.6587 76.0555 45.4967 76.2319 45.3843C76.4084 45.2707 76.6085 45.2139 76.8321 45.2139C77.005 45.2139 77.1446 45.2429 77.251 45.3009C77.3573 45.3577 77.4401 45.4242 77.4994 45.5003C77.5598 45.5765 77.6063 45.6436 77.639 45.7016H77.6789V45.2501H78.2101V48.0968C78.2101 48.3361 78.1545 48.5326 78.0433 48.6861C77.9321 48.8396 77.7816 48.9532 77.5918 49.027C77.4033 49.1007 77.1905 49.1376 76.9536 49.1376ZM76.9482 47.5438C77.1041 47.5438 77.2358 47.5075 77.3434 47.435C77.4522 47.3613 77.5344 47.2561 77.59 47.1195C77.6468 46.9817 77.6752 46.8167 77.6752 46.6245C77.6752 46.4372 77.6474 46.2722 77.5918 46.1295C77.5362 45.9869 77.4546 45.8757 77.347 45.7959C77.2395 45.7149 77.1065 45.6744 76.9482 45.6744C76.785 45.6744 76.649 45.7167 76.5402 45.8013C76.4314 45.8847 76.3492 45.9984 76.2936 46.1422C76.2392 46.2861 76.212 46.4468 76.212 46.6245C76.212 46.807 76.2398 46.9672 76.2954 47.105C76.351 47.2428 76.4332 47.3504 76.542 47.4277C76.652 47.5051 76.7874 47.5438 76.9482 47.5438ZM80.1375 48.0914C79.8631 48.0914 79.6268 48.0327 79.4286 47.9155C79.2315 47.797 79.0792 47.6308 78.9717 47.4169C78.8653 47.2017 78.8121 46.9497 78.8121 46.6608C78.8121 46.3755 78.8653 46.1241 78.9717 45.9065C79.0792 45.6889 79.2291 45.5191 79.4213 45.397C79.6147 45.2749 79.8408 45.2139 80.0994 45.2139C80.2566 45.2139 80.4089 45.2399 80.5564 45.2918C80.7038 45.3438 80.8362 45.4254 80.9534 45.5366C81.0707 45.6478 81.1632 45.7923 81.2309 45.97C81.2986 46.1464 81.3324 46.361 81.3324 46.6136V46.8058H79.1185V46.3997H80.8011C80.8011 46.257 80.7721 46.1307 80.7141 46.0207C80.6561 45.9095 80.5745 45.8219 80.4693 45.7578C80.3654 45.6938 80.2433 45.6617 80.1031 45.6617C79.9508 45.6617 79.8178 45.6992 79.7042 45.7741C79.5918 45.8479 79.5047 45.9446 79.4431 46.0642C79.3826 46.1827 79.3524 46.3114 79.3524 46.4504V46.7678C79.3524 46.9539 79.3851 47.1123 79.4503 47.2428C79.5168 47.3733 79.6093 47.4731 79.7277 47.542C79.8462 47.6097 79.9846 47.6435 80.143 47.6435C80.2457 47.6435 80.3394 47.629 80.424 47.6C80.5086 47.5698 80.5817 47.5251 80.6434 47.4658C80.705 47.4066 80.7522 47.3335 80.7848 47.2464L81.2979 47.3389C81.2568 47.49 81.1831 47.6224 81.0767 47.736C80.9716 47.8484 80.8392 47.936 80.6797 47.9989C80.5213 48.0605 80.3406 48.0914 80.1375 48.0914ZM83.234 45.2501V45.6853H81.7127V45.2501H83.234ZM82.1207 44.5829H82.6628V47.2174C82.6628 47.3226 82.6785 47.4018 82.7099 47.4549C82.7414 47.5069 82.7819 47.5426 82.8314 47.5619C82.8822 47.5801 82.9372 47.5891 82.9964 47.5891C83.0399 47.5891 83.078 47.5861 83.1107 47.5801C83.1433 47.574 83.1687 47.5692 83.1868 47.5655L83.2847 48.0134C83.2533 48.0255 83.2086 48.0376 83.1505 48.0497C83.0925 48.063 83.02 48.0702 82.933 48.0714C82.7903 48.0738 82.6574 48.0485 82.5341 47.9953C82.4108 47.9421 82.3111 47.8599 82.2349 47.7487C82.1587 47.6375 82.1207 47.4979 82.1207 47.3298V44.5829ZM84.4356 46.3815V48.0352H83.8935V44.3218H84.4284V45.7034H84.4628C84.5281 45.5535 84.6278 45.4345 84.762 45.3462C84.8962 45.258 85.0715 45.2139 85.2878 45.2139C85.4788 45.2139 85.6456 45.2532 85.7883 45.3317C85.9321 45.4103 86.0433 45.5275 86.1219 45.6835C86.2017 45.8382 86.2416 46.0316 86.2416 46.2637V48.0352H85.6994V46.329C85.6994 46.1247 85.6468 45.9663 85.5417 45.8539C85.4365 45.7403 85.2902 45.6835 85.1029 45.6835C84.9748 45.6835 84.8599 45.7107 84.7584 45.7651C84.6581 45.8195 84.5789 45.8992 84.5209 46.0044C84.464 46.1084 84.4356 46.2341 84.4356 46.3815ZM88.1653 48.0914C87.8909 48.0914 87.6546 48.0327 87.4564 47.9155C87.2593 47.797 87.107 47.6308 86.9995 47.4169C86.8931 47.2017 86.8399 46.9497 86.8399 46.6608C86.8399 46.3755 86.8931 46.1241 86.9995 45.9065C87.107 45.6889 87.2569 45.5191 87.4491 45.397C87.6425 45.2749 87.8686 45.2139 88.1272 45.2139C88.2844 45.2139 88.4367 45.2399 88.5842 45.2918C88.7316 45.3438 88.864 45.4254 88.9812 45.5366C89.0985 45.6478 89.191 45.7923 89.2587 45.97C89.3264 46.1464 89.3602 46.361 89.3602 46.6136V46.8058H87.1463V46.3997H88.8289C88.8289 46.257 88.7999 46.1307 88.7419 46.0207C88.6839 45.9095 88.6023 45.8219 88.4971 45.7578C88.3932 45.6938 88.2711 45.6617 88.1309 45.6617C87.9786 45.6617 87.8456 45.6992 87.732 45.7741C87.6196 45.8479 87.5325 45.9446 87.4709 46.0642C87.4104 46.1827 87.3802 46.3114 87.3802 46.4504V46.7678C87.3802 46.9539 87.4129 47.1123 87.4781 47.2428C87.5446 47.3733 87.6371 47.4731 87.7555 47.542C87.874 47.6097 88.0124 47.6435 88.1708 47.6435C88.2735 47.6435 88.3672 47.629 88.4518 47.6C88.5364 47.5698 88.6095 47.5251 88.6712 47.4658C88.7328 47.4066 88.78 47.3335 88.8126 47.2464L89.3257 47.3389C89.2846 47.49 89.2109 47.6224 89.1045 47.736C88.9994 47.8484 88.867 47.936 88.7075 47.9989C88.5491 48.0605 88.3684 48.0914 88.1653 48.0914ZM89.9617 48.0352V45.2501H90.4857V45.6925H90.5147C90.5655 45.5427 90.6549 45.4248 90.7831 45.339C90.9124 45.2519 91.0587 45.2084 91.2219 45.2084C91.2557 45.2084 91.2956 45.2096 91.3415 45.2121C91.3887 45.2145 91.4255 45.2175 91.4521 45.2211V45.7397C91.4304 45.7336 91.3917 45.727 91.3361 45.7197C91.2805 45.7113 91.2249 45.707 91.1693 45.707C91.0412 45.707 90.9269 45.7342 90.8266 45.7886C90.7275 45.8418 90.6489 45.9162 90.5909 46.0117C90.5329 46.1059 90.5039 46.2135 90.5039 46.3344V48.0352H89.9617ZM91.9594 48.0696C91.8603 48.0696 91.775 48.0346 91.7037 47.9644C91.6324 47.8931 91.5967 47.8073 91.5967 47.707C91.5967 47.6079 91.6324 47.5232 91.7037 47.4531C91.775 47.3818 91.8603 47.3462 91.9594 47.3462C92.0585 47.3462 92.1437 47.3818 92.215 47.4531C92.2863 47.5232 92.322 47.6079 92.322 47.707C92.322 47.7735 92.3051 47.8345 92.2712 47.8901C92.2386 47.9445 92.1951 47.988 92.1407 48.0207C92.0863 48.0533 92.0259 48.0696 91.9594 48.0696Z" fill="white"/>
</svg>
