<svg width="34" height="34" viewBox="0 0 34 34" fill="none" xmlns="http://www.w3.org/2000/svg">
<path d="M14.5504 22.7834C14.7845 23.0177 14.916 23.3354 14.916 23.6667C14.916 23.9979 14.7845 24.3157 14.5504 24.55L11.2171 27.8834C10.5427 28.5581 9.62846 28.9381 8.67451 28.9403C7.72055 28.9425 6.80459 28.5666 6.1271 27.895C6.00722 27.7804 5.91135 27.6431 5.84508 27.491C5.77881 27.339 5.74347 27.1753 5.7411 27.0094C5.73873 26.8436 5.7694 26.6789 5.83131 26.525C5.89321 26.3711 5.98513 26.2311 6.10169 26.1131C6.21825 25.9951 6.35713 25.9015 6.51024 25.8377C6.66334 25.7739 6.82761 25.7412 6.99347 25.7416C7.15934 25.7419 7.32348 25.7753 7.47633 25.8397C7.62917 25.9041 7.76768 25.9982 7.88377 26.1167C8.31543 26.55 9.0171 26.55 9.44877 26.1167L12.7821 22.7834C13.0165 22.5493 13.3342 22.4178 13.6654 22.4178C13.9967 22.4178 14.3161 22.5493 14.5504 22.7834ZM19.1688 2.87503C20.7539 1.28992 22.9037 0.399414 25.1454 0.399414C27.3871 0.399414 29.537 1.28992 31.1221 2.87503C32.7072 4.46014 33.5977 6.61001 33.5977 8.8517C33.5977 11.0934 32.7072 13.2433 31.1221 14.8284L14.8254 31.125C13.2403 32.7101 11.0905 33.6006 8.84877 33.6006C6.60708 33.6006 4.45721 32.7101 2.8721 31.125C1.28699 29.5399 0.396484 27.39 0.396484 25.1484C0.396484 22.9067 1.28699 20.7568 2.8721 19.1717L19.1688 2.87503ZM29.3538 4.64336C28.8012 4.09054 28.1452 3.652 27.4231 3.3528C26.701 3.0536 25.927 2.8996 25.1454 2.8996C24.3638 2.8996 23.5899 3.0536 22.8678 3.3528C22.1457 3.652 21.4896 4.09054 20.9371 4.64336L13.6721 11.9084L22.0888 20.325L29.3554 13.06C29.9083 12.5075 30.3468 11.8514 30.646 11.1293C30.9452 10.4073 31.0992 9.63331 31.0992 8.8517C31.0992 8.07008 30.9452 7.29613 30.646 6.57405C30.3468 5.85197 29.9066 5.19591 29.3538 4.64336ZM20.3238 22.0934L11.9071 13.6767L4.6421 20.94C4.08229 21.4911 3.63711 22.1475 3.33221 22.8715C3.02732 23.5954 2.86876 24.3725 2.86567 25.1581C2.86257 25.9436 3.01501 26.722 3.31419 27.4483C3.61337 28.1746 4.05337 28.8345 4.60882 29.39C5.16428 29.9454 5.82419 30.3854 6.55052 30.6846C7.27684 30.9838 8.0552 31.1362 8.84072 31.1331C9.62625 31.13 10.4034 30.9715 11.1273 30.6666C11.8513 30.3617 12.5077 29.9165 13.0588 29.3567L20.3238 22.0934Z" fill="black"/>
</svg>
