<svg width="21" height="21" viewBox="0 0 21 21" fill="none" xmlns="http://www.w3.org/2000/svg">
<path d="M4.52604 16.0575H5.71354L13.8594 7.91168L12.6719 6.72418L4.52604 14.87V16.0575ZM2.85938 17.7242V14.1825L13.8594 3.20335C14.026 3.05057 14.2102 2.93252 14.4119 2.84918C14.6135 2.76585 14.8252 2.72418 15.0469 2.72418C15.2685 2.72418 15.4838 2.76585 15.6927 2.84918C15.9016 2.93252 16.0822 3.05752 16.2344 3.22418L17.3802 4.39085C17.5469 4.54363 17.6685 4.72418 17.7452 4.93252C17.8219 5.14085 17.8599 5.34918 17.8594 5.55752C17.8594 5.77974 17.8213 5.99168 17.7452 6.19335C17.6691 6.39502 17.5474 6.5789 17.3802 6.74502L6.40104 17.7242H2.85938ZM13.2552 7.32835L12.6719 6.72418L13.8594 7.91168L13.2552 7.32835Z" fill="black"/>
</svg>
