<svg width="40" height="40" viewBox="0 0 40 40" fill="none" xmlns="http://www.w3.org/2000/svg">
<circle cx="20" cy="20" r="20" fill="white"/>
<g clip-path="url(#clip0_57_2255)">
<path d="M11.469 12.2449C11.0576 12.2449 10.6631 12.4083 10.3723 12.6991C10.0814 12.99 9.91797 13.3845 9.91797 13.7959V28.5306C9.91797 28.9419 10.0814 29.3364 10.3723 29.6273C10.6631 29.9182 11.0576 30.0816 11.469 30.0816H28.5302C28.9416 30.0816 29.3361 29.9182 29.6269 29.6273C29.9178 29.3364 30.0812 28.9419 30.0812 28.5306V13.7959C30.0812 13.3845 29.9178 12.99 29.6269 12.6991C29.3361 12.4083 28.9416 12.2449 28.5302 12.2449H25.4282M14.571 9.91833V14.5714M25.4282 9.91833V14.5714M14.571 12.2449H22.3261" stroke="black" stroke-width="1.5" stroke-linecap="round" stroke-linejoin="round"/>
<path d="M18.7407 16.2186C18.535 16.2186 18.3378 16.3003 18.1923 16.4458C18.0469 16.5912 17.9652 16.7885 17.9652 16.9941V19.1749H15.7814C15.5757 19.1749 15.3784 19.2566 15.233 19.402C15.0876 19.5475 15.0059 19.7447 15.0059 19.9504V22.4708C15.0059 22.6765 15.0876 22.8737 15.233 23.0192C15.3784 23.1646 15.5757 23.2463 15.7814 23.2463H17.9637V25.427C17.9637 25.6327 18.0454 25.83 18.1908 25.9754C18.3362 26.1208 18.5335 26.2025 18.7392 26.2025H21.2596C21.3614 26.2025 21.4623 26.1825 21.5563 26.1435C21.6504 26.1045 21.7359 26.0474 21.8079 25.9754C21.88 25.9034 21.9371 25.8179 21.9761 25.7238C22.015 25.6297 22.0351 25.5289 22.0351 25.427V23.2463H24.2158C24.4215 23.2463 24.6188 23.1646 24.7642 23.0192C24.9096 22.8737 24.9913 22.6765 24.9913 22.4708V19.9504C24.9913 19.7447 24.9096 19.5475 24.7642 19.402C24.6188 19.2566 24.4215 19.1749 24.2158 19.1749H22.0366V16.9941C22.0366 16.7885 21.9549 16.5912 21.8095 16.4458C21.6641 16.3003 21.4668 16.2186 21.2611 16.2186H18.7407Z" stroke="black" stroke-width="1.5" stroke-linecap="round" stroke-linejoin="round"/>
</g>
<defs>
<clipPath id="clip0_57_2255">
<rect width="21.7143" height="21.7143" fill="white" transform="translate(9.14258 9.14282)"/>
</clipPath>
</defs>
</svg>
