<svg width="35" height="35" viewBox="0 0 35 35" fill="none" xmlns="http://www.w3.org/2000/svg">
<circle cx="17.5" cy="17.5" r="17.5" fill="white"/>
<path d="M15.1725 15.172L11.6365 18.707C11.265 19.0784 10.9704 19.5194 10.7693 20.0047C10.5683 20.49 10.4648 21.0102 10.4648 21.5355C10.4648 22.0608 10.5683 22.581 10.7693 23.0663C10.9704 23.5516 11.265 23.9926 11.6365 24.364C12.0079 24.7355 12.4489 25.0301 12.9342 25.2311C13.4195 25.4322 13.9397 25.5356 14.465 25.5356C14.9903 25.5356 15.5105 25.4322 15.9958 25.2311C16.4811 25.0301 16.9221 24.7355 17.2935 24.364L20.8285 20.828M15.1725 15.172L18.7075 11.636C19.0789 11.2645 19.5199 10.9699 20.0052 10.7689C20.4905 10.5678 21.0107 10.4644 21.536 10.4644C22.0613 10.4644 22.5815 10.5678 23.0668 10.7689C23.5521 10.9699 23.9931 11.2645 24.3645 11.636C24.7359 12.0074 25.0306 12.4484 25.2316 12.9337C25.4327 13.419 25.5361 13.9392 25.5361 14.4645C25.5361 14.9898 25.4327 15.51 25.2316 15.9953C25.0306 16.4806 24.7359 16.9216 24.3645 17.293L20.8285 20.828M15.1725 15.172L20.8285 20.828" stroke="black" stroke-width="2" stroke-linecap="round" stroke-linejoin="round"/>
</svg>
