<svg width="27" height="27" viewBox="0 0 27 27" fill="none" xmlns="http://www.w3.org/2000/svg">
<path d="M12.0811 14.3225H6.58954C6.27834 14.3225 6.01768 14.217 5.80753 14.0061C5.59739 13.7953 5.49195 13.5346 5.49121 13.2241C5.49048 12.9137 5.59592 12.653 5.80753 12.4421C6.01914 12.2313 6.27981 12.1258 6.58954 12.1258H12.0811V6.63421C12.0811 6.32302 12.1866 6.06235 12.3975 5.85221C12.6083 5.64206 12.869 5.53662 13.1795 5.53589C13.4899 5.53516 13.751 5.6406 13.9626 5.85221C14.1742 6.06382 14.2793 6.32449 14.2778 6.63421V12.1258H19.7694C20.0806 12.1258 20.3416 12.2313 20.5525 12.4421C20.7634 12.653 20.8684 12.9137 20.8677 13.2241C20.867 13.5346 20.7615 13.7956 20.5514 14.0072C20.3413 14.2189 20.0806 14.3239 19.7694 14.3225H14.2778V19.8141C14.2778 20.1253 14.1723 20.3863 13.9615 20.5972C13.7506 20.8081 13.4899 20.9131 13.1795 20.9124C12.869 20.9117 12.6083 20.8062 12.3975 20.5961C12.1866 20.3859 12.0811 20.1253 12.0811 19.8141V14.3225Z" fill="black"/>
</svg>
